<svg width="66" height="66" viewBox="0 0 66 66" fill="none" xmlns="http://www.w3.org/2000/svg">
<circle cx="33" cy="33" r="33" fill="#38BC64"/>
<path opacity="0.4" d="M40.5 47.167C38.4108 47.69 35.814 48 33 48C30.186 48 27.5892 47.69 25.5 47.167M43 40.3842C40.5569 41.3069 36.9823 41.8889 33 41.8889C29.0177 41.8889 25.4431 41.3069 23 40.3842M20.5 32.4464C22.8857 33.933 27.5885 34.9444 33 34.9444C38.4115 34.9444 43.1143 33.933 45.5 32.4464" stroke="white" stroke-width="2" stroke-linecap="round" stroke-linejoin="round"/>
<path d="M48 23C48 25.7614 41.2843 28 33 28C24.7157 28 18 25.7614 18 23C18 20.2386 24.7157 18 33 18C41.2843 18 48 20.2386 48 23Z" stroke="white" stroke-width="2" stroke-linecap="round" stroke-linejoin="round"/>
</svg>
