<svg width="320" height="415" viewBox="0 0 320 415" fill="none" xmlns="http://www.w3.org/2000/svg">
<g clip-path="url(#clip0_1287_11034)">
<rect width="320" height="415" fill="white"/>
<line x1="319.792" y1="486" x2="319.792" y2="3.05068e-05" stroke="#DCDCDC" stroke-width="0.494108"/>
<line x1="307.933" y1="486" x2="307.933" y2="3.05068e-05" stroke="#DCDCDC" stroke-width="0.494108"/>
<line x1="296.077" y1="486" x2="296.077" y2="3.05068e-05" stroke="#DCDCDC" stroke-width="0.494108"/>
<line x1="284.218" y1="486" x2="284.218" y2="3.05068e-05" stroke="#DCDCDC" stroke-width="0.494108"/>
<line x1="272.358" y1="486" x2="272.358" y2="3.05068e-05" stroke="#DCDCDC" stroke-width="0.494108"/>
<line x1="260.499" y1="486" x2="260.499" y2="1.5248e-05" stroke="#DCDCDC" stroke-width="0.494108"/>
<line x1="248.64" y1="486" x2="248.64" y2="1.5248e-05" stroke="#DCDCDC" stroke-width="0.494108"/>
<line x1="236.784" y1="486" x2="236.784" y2="1.5248e-05" stroke="#DCDCDC" stroke-width="0.494108"/>
<line x1="224.925" y1="486" x2="224.925" y2="1.5248e-05" stroke="#DCDCDC" stroke-width="0.494108"/>
<line x1="213.065" y1="486" x2="213.065" y2="1.5248e-05" stroke="#DCDCDC" stroke-width="0.494108"/>
<line x1="201.206" y1="486" x2="201.206" y2="1.5248e-05" stroke="#DCDCDC" stroke-width="0.494108"/>
<line x1="189.347" y1="486" x2="189.347" y2="1.5248e-05" stroke="#DCDCDC" stroke-width="0.494108"/>
<line x1="177.491" y1="486" x2="177.491" y2="1.5248e-05" stroke="#DCDCDC" stroke-width="0.494108"/>
<line x1="165.632" y1="486" x2="165.632" y2="1.5248e-05" stroke="#DCDCDC" stroke-width="0.494108"/>
<line x1="153.772" y1="486" x2="153.772" y2="1.5248e-05" stroke="#DCDCDC" stroke-width="0.494108"/>
<line x1="141.913" y1="486" x2="141.913" y2="1.5248e-05" stroke="#DCDCDC" stroke-width="0.494108"/>
<line x1="130.054" y1="486" x2="130.054" y2="1.5248e-05" stroke="#DCDCDC" stroke-width="0.494108"/>
<line x1="118.194" y1="486" x2="118.194" y2="1.5248e-05" stroke="#DCDCDC" stroke-width="0.494108"/>
<line x1="106.339" y1="486" x2="106.339" y2="1.5248e-05" stroke="#DCDCDC" stroke-width="0.494108"/>
<line x1="94.4795" y1="486" x2="94.4795" y2="1.5248e-05" stroke="#DCDCDC" stroke-width="0.494108"/>
<line x1="82.6201" y1="486" x2="82.6202" y2="-1.07991e-08" stroke="#DCDCDC" stroke-width="0.494108"/>
<line x1="70.7608" y1="486" x2="70.7608" y2="-1.07991e-08" stroke="#DCDCDC" stroke-width="0.494108"/>
<line x1="58.9014" y1="486" x2="58.9014" y2="-1.07991e-08" stroke="#DCDCDC" stroke-width="0.494108"/>
<line x1="47.0459" y1="486" x2="47.0459" y2="-1.07991e-08" stroke="#DCDCDC" stroke-width="0.494108"/>
<line x1="35.1865" y1="486" x2="35.1866" y2="-1.07991e-08" stroke="#DCDCDC" stroke-width="0.494108"/>
<line x1="23.3272" y1="486" x2="23.3272" y2="-1.07991e-08" stroke="#DCDCDC" stroke-width="0.494108"/>
<line x1="11.4678" y1="486" x2="11.4678" y2="-1.07991e-08" stroke="#DCDCDC" stroke-width="0.494108"/>
<line x1="699.516" y1="0.247054" x2="-11.5063" y2="0.247054" stroke="#DCDCDC" stroke-width="0.494108"/>
<line x1="699.516" y1="12.1057" x2="-11.5063" y2="12.1057" stroke="#DCDCDC" stroke-width="0.494108"/>
<line x1="699.516" y1="23.9643" x2="-11.5063" y2="23.9643" stroke="#DCDCDC" stroke-width="0.494108"/>
<line x1="699.516" y1="35.823" x2="-11.5063" y2="35.823" stroke="#DCDCDC" stroke-width="0.494108"/>
<line x1="699.516" y1="47.6816" x2="-11.5063" y2="47.6816" stroke="#DCDCDC" stroke-width="0.494108"/>
<line x1="699.516" y1="59.5402" x2="-11.5063" y2="59.5402" stroke="#DCDCDC" stroke-width="0.494108"/>
<line x1="699.516" y1="71.3988" x2="-11.5063" y2="71.3988" stroke="#DCDCDC" stroke-width="0.494108"/>
<line x1="699.516" y1="83.2575" x2="-11.5063" y2="83.2575" stroke="#DCDCDC" stroke-width="0.494108"/>
<line x1="699.516" y1="95.1161" x2="-11.5063" y2="95.1161" stroke="#DCDCDC" stroke-width="0.494108"/>
<line x1="699.516" y1="106.975" x2="-11.5063" y2="106.975" stroke="#DCDCDC" stroke-width="0.494108"/>
<line x1="699.516" y1="118.833" x2="-11.5063" y2="118.833" stroke="#DCDCDC" stroke-width="0.494108"/>
<line x1="699.516" y1="130.692" x2="-11.5063" y2="130.692" stroke="#DCDCDC" stroke-width="0.494108"/>
<line x1="699.516" y1="142.551" x2="-11.5063" y2="142.551" stroke="#DCDCDC" stroke-width="0.494108"/>
<line x1="699.516" y1="154.409" x2="-11.5063" y2="154.409" stroke="#DCDCDC" stroke-width="0.494108"/>
<line x1="699.516" y1="166.268" x2="-11.5063" y2="166.268" stroke="#DCDCDC" stroke-width="0.494108"/>
<line x1="699.516" y1="178.127" x2="-11.5063" y2="178.127" stroke="#DCDCDC" stroke-width="0.494108"/>
<line x1="699.516" y1="189.985" x2="-11.5063" y2="189.985" stroke="#DCDCDC" stroke-width="0.494108"/>
<line x1="699.516" y1="201.844" x2="-11.5063" y2="201.844" stroke="#DCDCDC" stroke-width="0.494108"/>
<line x1="699.516" y1="213.702" x2="-11.5063" y2="213.702" stroke="#DCDCDC" stroke-width="0.494108"/>
<line x1="699.516" y1="225.561" x2="-11.5063" y2="225.561" stroke="#DCDCDC" stroke-width="0.494108"/>
<line x1="699.516" y1="237.42" x2="-11.5063" y2="237.42" stroke="#DCDCDC" stroke-width="0.494108"/>
<line x1="699.516" y1="249.278" x2="-11.5063" y2="249.278" stroke="#DCDCDC" stroke-width="0.494108"/>
<line x1="699.516" y1="261.137" x2="-11.5063" y2="261.137" stroke="#DCDCDC" stroke-width="0.494108"/>
<line x1="699.516" y1="272.996" x2="-11.5063" y2="272.996" stroke="#DCDCDC" stroke-width="0.494108"/>
<line x1="699.516" y1="284.854" x2="-11.5063" y2="284.854" stroke="#DCDCDC" stroke-width="0.494108"/>
<line x1="699.516" y1="296.713" x2="-11.5063" y2="296.713" stroke="#DCDCDC" stroke-width="0.494108"/>
<line x1="699.516" y1="308.571" x2="-11.5063" y2="308.571" stroke="#DCDCDC" stroke-width="0.494108"/>
<line x1="699.516" y1="320.43" x2="-11.5063" y2="320.43" stroke="#DCDCDC" stroke-width="0.494108"/>
<line x1="699.516" y1="332.289" x2="-11.5063" y2="332.289" stroke="#DCDCDC" stroke-width="0.494108"/>
<line x1="699.516" y1="344.147" x2="-11.5063" y2="344.147" stroke="#DCDCDC" stroke-width="0.494108"/>
<line x1="699.516" y1="356.006" x2="-11.5063" y2="356.006" stroke="#DCDCDC" stroke-width="0.494108"/>
<line x1="699.516" y1="367.865" x2="-11.5063" y2="367.865" stroke="#DCDCDC" stroke-width="0.494108"/>
<line x1="699.516" y1="379.723" x2="-11.5063" y2="379.723" stroke="#DCDCDC" stroke-width="0.494108"/>
<line x1="699.516" y1="391.582" x2="-11.5063" y2="391.582" stroke="#DCDCDC" stroke-width="0.494108"/>
<line x1="699.516" y1="403.441" x2="-11.5063" y2="403.441" stroke="#DCDCDC" stroke-width="0.494108"/>
</g>
<rect x="0.247054" y="0.247054" width="319.506" height="414.506" stroke="#DCDCDC" stroke-width="0.494108"/>
<line x1="44.9989" y1="44.2701" x2="86.504" y2="85.7752" stroke="#DCDCDC" stroke-width="0.494108"/>
<line x1="44.6495" y1="85.7752" x2="85.6605" y2="44.7642" stroke="#DCDCDC" stroke-width="0.494108"/>
<path opacity="0.4" d="M65.3313 74.9276C70.569 74.9276 74.815 70.6816 74.815 65.4439C74.815 60.2062 70.569 55.9602 65.3313 55.9602C60.0937 55.9602 55.8477 60.2062 55.8477 65.4439C55.8477 70.6816 60.0937 74.9276 65.3313 74.9276Z" stroke="#F3356A" stroke-width="1.48233" stroke-linecap="round" stroke-linejoin="round"/>
<path d="M67.9148 61.9023C68.3782 61.7478 68.6098 61.6706 68.7639 61.7255C68.8979 61.7733 69.0034 61.8788 69.0513 62.0129C69.1062 62.167 69.029 62.3986 68.8745 62.8619L67.4638 67.0942C67.4198 67.2261 67.3978 67.2921 67.3603 67.3469C67.3271 67.3954 67.2852 67.4374 67.2367 67.4706C67.1819 67.508 67.1159 67.53 66.9839 67.574L62.7517 68.9848C62.2884 69.1392 62.0567 69.2164 61.9027 69.1615C61.7686 69.1137 61.6631 69.0082 61.6153 68.8741C61.5604 68.7201 61.6376 68.4884 61.792 68.0251L63.2028 63.7929C63.2468 63.6609 63.2688 63.5949 63.3062 63.5401C63.3394 63.4916 63.3814 63.4497 63.4299 63.4165C63.4847 63.379 63.5507 63.357 63.6826 63.313L67.9148 61.9023Z" stroke="#F3356A" stroke-width="1.48233" stroke-linecap="round" stroke-linejoin="round"/>
<circle cx="65.3299" cy="65.4444" r="17.2938" stroke="#DCDCDC" stroke-width="0.494108"/>
<rect x="36.1767" y="36.292" width="58.3048" height="58.3048" rx="29.1524" stroke="#B2C1BC" stroke-width="0.494108"/>
<line x1="139.866" y1="44.2701" x2="181.371" y2="85.7752" stroke="#DCDCDC" stroke-width="0.494108"/>
<line x1="139.517" y1="85.7752" x2="180.528" y2="44.7642" stroke="#DCDCDC" stroke-width="0.494108"/>
<path opacity="0.4" d="M162.198 60.439H167.916C168.341 60.439 168.553 60.439 168.677 60.5282C168.785 60.606 168.856 60.7258 168.871 60.8582C168.889 61.0099 168.786 61.1954 168.58 61.5662L167.186 64.0748C167.111 64.2093 167.074 64.2765 167.059 64.3477C167.046 64.4108 167.046 64.4758 167.059 64.5388C167.074 64.61 167.111 64.6772 167.186 64.8117L168.58 67.3203C168.786 67.6911 168.889 67.8766 168.871 68.0283C168.856 68.1607 168.785 68.2805 168.677 68.3583C168.553 68.4475 168.341 68.4475 167.916 68.4475H160.713C160.182 68.4475 159.916 68.4475 159.713 68.3441C159.535 68.2532 159.39 68.1081 159.299 67.9297C159.195 67.7268 159.195 67.4612 159.195 66.9301V64.4433" stroke="#F3356A" stroke-width="1.48233" stroke-linecap="round" stroke-linejoin="round"/>
<path d="M155.691 74.4536L151.687 58.4367M153.189 64.4428H160.681C161.212 64.4428 161.477 64.4428 161.68 64.3395C161.859 64.2486 162.004 64.1035 162.095 63.925C162.198 63.7222 162.198 63.4566 162.198 62.9254V57.9518C162.198 57.4206 162.198 57.1551 162.095 56.9522C162.004 56.7738 161.859 56.6287 161.68 56.5378C161.477 56.4344 161.212 56.4344 160.681 56.4344H153.13C152.468 56.4344 152.136 56.4344 151.91 56.5716C151.711 56.692 151.564 56.8809 151.495 57.1027C151.417 57.3558 151.497 57.6771 151.658 58.3198L153.189 64.4428Z" stroke="#F3356A" stroke-width="1.48233" stroke-linecap="round" stroke-linejoin="round"/>
<circle cx="160.197" cy="65.4444" r="17.2938" stroke="#DCDCDC" stroke-width="0.494108"/>
<rect x="131.044" y="36.292" width="58.3048" height="58.3048" rx="29.1524" stroke="#B2C1BC" stroke-width="0.494108"/>
<line x1="234.737" y1="44.2701" x2="276.242" y2="85.7752" stroke="#DCDCDC" stroke-width="0.494108"/>
<line x1="234.388" y1="85.7752" x2="275.399" y2="44.7642" stroke="#DCDCDC" stroke-width="0.494108"/>
<path opacity="0.4" d="M246.238 68.9013L248.048 67.8566C248.146 67.8 248.261 67.7803 248.372 67.8011L251.933 68.4675C252.226 68.5223 252.496 68.297 252.494 67.9993L252.48 64.8796C252.48 64.7948 252.502 64.7115 252.545 64.6383L254.342 61.5619C254.436 61.4018 254.427 61.2019 254.321 61.0502L251.295 56.7437M264.543 65.9185C264.543 65.9185 262.067 65.8601 260.287 64.9702C259.338 64.496 256.493 61.1767 261.709 58.6721" stroke="#F3356A" stroke-width="1.48233" stroke-linecap="round" stroke-linejoin="round"/>
<path d="M255.544 74.9159C255.387 74.9237 255.229 74.9276 255.07 74.9276C249.832 74.9276 245.586 70.6816 245.586 65.4439C245.586 60.2062 249.832 55.9602 255.07 55.9602C260.307 55.9602 264.553 60.2062 264.553 65.4439C264.553 65.6029 264.549 65.761 264.542 65.9181M259.582 74.8705L256.578 66.9528L264.496 69.956L260.985 71.3595L259.582 74.8705Z" stroke="#F3356A" stroke-width="1.48233" stroke-linecap="round" stroke-linejoin="round"/>
<circle cx="255.068" cy="65.4444" r="17.2938" stroke="#DCDCDC" stroke-width="0.494108"/>
<rect x="225.915" y="36.292" width="58.3048" height="58.3048" rx="29.1524" stroke="#B2C1BC" stroke-width="0.494108"/>
<line x1="44.9989" y1="139.137" x2="86.504" y2="180.642" stroke="#DCDCDC" stroke-width="0.494108"/>
<line x1="44.6495" y1="180.642" x2="85.6605" y2="139.631" stroke="#DCDCDC" stroke-width="0.494108"/>
<path opacity="0.4" d="M65.3313 169.795C70.569 169.795 74.815 165.549 74.815 160.311C74.815 155.073 70.569 150.827 65.3313 150.827C60.0937 150.827 55.8477 155.073 55.8477 160.311C55.8477 165.549 60.0937 169.795 65.3313 169.795Z" stroke="#F3356A" stroke-width="1.48233" stroke-linecap="round" stroke-linejoin="round"/>
<path d="M69.1221 160.311L65.3286 156.518M65.3286 156.518L61.5352 160.311M65.3286 156.518V164.105" stroke="#F3356A" stroke-width="1.48233" stroke-linecap="round" stroke-linejoin="round"/>
<circle cx="65.3299" cy="160.312" r="17.2938" stroke="#DCDCDC" stroke-width="0.494108"/>
<rect x="36.1767" y="131.159" width="58.3048" height="58.3048" rx="29.1524" stroke="#B2C1BC" stroke-width="0.494108"/>
<line x1="139.866" y1="139.137" x2="181.371" y2="180.642" stroke="#DCDCDC" stroke-width="0.494108"/>
<line x1="139.517" y1="180.642" x2="180.528" y2="139.631" stroke="#DCDCDC" stroke-width="0.494108"/>
<path opacity="0.4" d="M165.889 152.724H168.26C168.702 152.724 168.923 152.724 169.097 152.796C169.329 152.893 169.514 153.077 169.61 153.31C169.682 153.484 169.682 153.705 169.682 154.147V154.621C169.682 155.503 169.682 155.944 169.585 156.306C169.322 157.287 168.555 158.054 167.573 158.317C167.212 158.414 166.771 158.414 165.889 158.414M154.508 152.724H152.137C151.696 152.724 151.475 152.724 151.3 152.796C151.068 152.893 150.883 153.077 150.787 153.31C150.715 153.484 150.715 153.705 150.715 154.147V154.621C150.715 155.503 150.715 155.944 150.812 156.306C151.075 157.287 151.842 158.054 152.824 158.317C153.185 158.414 153.626 158.414 154.508 158.414" stroke="#F3356A" stroke-width="1.48233" stroke-linecap="round" stroke-linejoin="round"/>
<path d="M160.198 163.156C157.055 163.156 154.508 160.609 154.508 157.466V152.197C154.508 151.805 154.508 151.609 154.565 151.451C154.661 151.188 154.868 150.98 155.132 150.885C155.289 150.827 155.485 150.827 155.878 150.827H164.518C164.911 150.827 165.107 150.827 165.264 150.885C165.528 150.98 165.735 151.188 165.831 151.451C165.888 151.609 165.888 151.805 165.888 152.197V157.466C165.888 160.609 163.341 163.156 160.198 163.156ZM160.198 163.156V166.001M155.878 169.795H164.518C164.751 169.795 164.94 169.606 164.94 169.373C164.94 167.511 163.43 166.001 161.568 166.001H158.828C156.966 166.001 155.456 167.511 155.456 169.373C155.456 169.606 155.645 169.795 155.878 169.795Z" stroke="#F3356A" stroke-width="1.48233" stroke-linecap="round" stroke-linejoin="round"/>
<circle cx="160.197" cy="160.312" r="17.2938" stroke="#DCDCDC" stroke-width="0.494108"/>
<rect x="131.044" y="131.159" width="58.3048" height="58.3048" rx="29.1524" stroke="#B2C1BC" stroke-width="0.494108"/>
<line x1="234.737" y1="139.137" x2="276.242" y2="180.642" stroke="#DCDCDC" stroke-width="0.494108"/>
<line x1="234.388" y1="180.642" x2="275.399" y2="139.631" stroke="#DCDCDC" stroke-width="0.494108"/>
<path opacity="0.4" d="M256.133 163.008L260.759 169.794M254.006 163.008L249.379 169.794M256.966 161.448C256.966 162.496 256.117 163.345 255.069 163.345C254.022 163.345 253.172 162.496 253.172 161.448C253.172 160.401 254.022 159.552 255.069 159.552C256.117 159.552 256.966 160.401 256.966 161.448Z" stroke="#F3356A" stroke-width="1.48233" stroke-linecap="round" stroke-linejoin="round"/>
<path d="M248.238 157.153C248.169 156.896 248.135 156.768 248.159 156.657C248.179 156.559 248.231 156.47 248.305 156.403C248.39 156.327 248.518 156.292 248.775 156.224L259.95 153.229L261.178 157.809L250.002 160.804C249.745 160.873 249.617 160.907 249.506 160.883C249.408 160.862 249.319 160.811 249.252 160.737C249.176 160.652 249.141 160.524 249.073 160.267L248.238 157.153Z" stroke="#F3356A" stroke-width="1.48233" stroke-linecap="round" stroke-linejoin="round"/>
<path d="M260.49 155.244C260.215 154.218 260.078 153.705 260.173 153.26C260.256 152.868 260.461 152.513 260.759 152.245C261.097 151.94 261.61 151.802 262.636 151.527C262.893 151.459 263.021 151.424 263.132 151.448C263.23 151.469 263.319 151.52 263.386 151.595C263.462 151.679 263.497 151.807 263.565 152.064L264.891 157.011C264.96 157.267 264.994 157.395 264.97 157.507C264.95 157.605 264.898 157.694 264.824 157.761C264.739 157.837 264.611 157.871 264.354 157.94C263.328 158.215 262.815 158.352 262.37 158.258C261.978 158.174 261.623 157.969 261.355 157.671C261.05 157.333 260.913 156.82 260.638 155.794L260.49 155.244Z" stroke="#F3356A" stroke-width="1.48233" stroke-linecap="round" stroke-linejoin="round"/>
<path d="M245.735 158.805C245.667 158.549 245.632 158.42 245.656 158.309C245.677 158.211 245.728 158.122 245.802 158.055C245.887 157.979 246.015 157.945 246.272 157.876L247.554 157.532C247.811 157.464 247.939 157.429 248.05 157.453C248.148 157.474 248.237 157.525 248.304 157.599C248.38 157.684 248.415 157.812 248.483 158.069L248.827 159.351C248.896 159.608 248.93 159.736 248.907 159.847C248.886 159.945 248.834 160.034 248.76 160.101C248.675 160.177 248.547 160.212 248.291 160.28L247.008 160.624C246.752 160.693 246.623 160.727 246.512 160.704C246.414 160.683 246.325 160.631 246.258 160.557C246.182 160.472 246.148 160.344 246.079 160.088L245.735 158.805Z" stroke="#F3356A" stroke-width="1.48233" stroke-linecap="round" stroke-linejoin="round"/>
<circle cx="255.068" cy="160.312" r="17.2938" stroke="#DCDCDC" stroke-width="0.494108"/>
<rect x="225.915" y="131.159" width="58.3048" height="58.3048" rx="29.1524" stroke="#B2C1BC" stroke-width="0.494108"/>
<line x1="45.0692" y1="234.137" x2="86.5743" y2="275.642" stroke="#DCDCDC" stroke-width="0.494108"/>
<line x1="44.7198" y1="275.642" x2="85.7308" y2="234.631" stroke="#DCDCDC" stroke-width="0.494108"/>
<path d="M56.8633 251.328C56.8633 249.735 56.8633 248.938 57.1734 248.329C57.4461 247.794 57.8814 247.359 58.4167 247.086C59.0253 246.776 59.822 246.776 61.4155 246.776H69.3818C70.9752 246.776 71.7719 246.776 72.3805 247.086C72.9158 247.359 73.3511 247.794 73.6238 248.329C73.9339 248.938 73.9339 249.735 73.9339 251.328V256.734C73.9339 258.059 73.9339 258.722 73.7174 259.245C73.4286 259.942 72.8747 260.496 72.1776 260.785C71.6548 261.001 70.9919 261.001 69.6663 261.001C69.2029 261.001 68.9712 261.001 68.7563 261.052C68.4697 261.12 68.2028 261.253 67.9768 261.442C67.8072 261.583 67.6682 261.769 67.3902 262.139L66.0056 263.986C65.7997 264.26 65.6967 264.397 65.5705 264.446C65.4599 264.489 65.3373 264.489 65.2267 264.446C65.1005 264.397 64.9976 264.26 64.7916 263.986L63.407 262.139C63.129 261.769 62.99 261.583 62.8205 261.442C62.5944 261.253 62.3275 261.12 62.0409 261.052C61.826 261.001 61.5943 261.001 61.1309 261.001C59.8053 261.001 59.1425 261.001 58.6196 260.785C57.9225 260.496 57.3686 259.942 57.0799 259.245C56.8633 258.722 56.8633 258.059 56.8633 256.734V251.328Z" stroke="#F3356A" stroke-width="1.48233" stroke-linecap="round" stroke-linejoin="round"/>
<circle cx="65.4002" cy="255.312" r="17.2938" stroke="#DCDCDC" stroke-width="0.494108"/>
<rect x="36.2471" y="226.159" width="58.3048" height="58.3048" rx="29.1524" stroke="#B2C1BC" stroke-width="0.494108"/>
<line x1="139.569" y1="234.137" x2="181.074" y2="275.642" stroke="#DCDCDC" stroke-width="0.494108"/>
<line x1="139.22" y1="275.642" x2="180.231" y2="234.631" stroke="#DCDCDC" stroke-width="0.494108"/>
<path opacity="0.4" d="M152.312 250.569H161.796C164.939 250.569 167.486 253.117 167.486 256.259C167.486 259.402 164.939 261.95 161.796 261.95H152.312" stroke="#F3356A" stroke-width="1.48233" stroke-linecap="round" stroke-linejoin="round"/>
<path d="M156.106 246.776L152.312 250.569L156.106 254.363" stroke="#F3356A" stroke-width="1.97643" stroke-linecap="round" stroke-linejoin="round"/>
<circle cx="159.9" cy="255.312" r="17.2938" stroke="#DCDCDC" stroke-width="0.494108"/>
<rect x="130.747" y="226.159" width="58.3048" height="58.3048" rx="29.1524" stroke="#B2C1BC" stroke-width="0.494108"/>
<line x1="234.569" y1="234.137" x2="276.074" y2="275.642" stroke="#DCDCDC" stroke-width="0.494108"/>
<line x1="234.22" y1="275.642" x2="275.231" y2="234.631" stroke="#DCDCDC" stroke-width="0.494108"/>
<path opacity="0.4" d="M254.902 264.795C260.139 264.795 264.385 260.549 264.385 255.311C264.385 250.073 260.139 245.827 254.902 245.827C249.664 245.827 245.418 250.073 245.418 255.311C245.418 260.549 249.664 264.795 254.902 264.795Z" stroke="#F3356A" stroke-width="1.48233" stroke-linecap="round" stroke-linejoin="round"/>
<path d="M254.898 251.518V255.311M254.898 259.105H254.908" stroke="#F3356A" stroke-width="1.48233" stroke-linecap="round" stroke-linejoin="round"/>
<circle cx="254.9" cy="255.312" r="17.2938" stroke="#DCDCDC" stroke-width="0.494108"/>
<rect x="225.747" y="226.159" width="58.3048" height="58.3048" rx="29.1524" stroke="#B2C1BC" stroke-width="0.494108"/>
<line x1="45.0692" y1="329.225" x2="86.5743" y2="370.73" stroke="#DCDCDC" stroke-width="0.494108"/>
<line x1="44.7198" y1="370.73" x2="85.7308" y2="329.719" stroke="#DCDCDC" stroke-width="0.494108"/>
<path d="M57.2603 349.208C56.6957 348.989 56.4134 348.879 56.331 348.721C56.2596 348.584 56.2595 348.42 56.3307 348.283C56.413 348.125 56.6951 348.015 57.2595 347.794L73.2753 341.544C73.7848 341.346 74.0395 341.246 74.2023 341.301C74.3436 341.348 74.4545 341.459 74.5018 341.6C74.5561 341.763 74.4567 342.017 74.2579 342.527L68.0078 358.543C67.7876 359.107 67.6775 359.389 67.5192 359.472C67.382 359.543 67.2186 359.543 67.0815 359.471C66.9233 359.389 66.8135 359.107 66.594 358.542L64.1015 352.133C64.057 352.018 64.0347 351.961 64.0003 351.913C63.9698 351.87 63.9323 351.833 63.8896 351.802C63.8413 351.768 63.784 351.745 63.6694 351.701L57.2603 349.208Z" stroke="#F3356A" stroke-width="1.48233" stroke-linecap="round" stroke-linejoin="round"/>
<circle cx="65.4002" cy="350.399" r="17.2938" stroke="#DCDCDC" stroke-width="0.494108"/>
<rect x="36.2471" y="321.247" width="58.3048" height="58.3048" rx="29.1524" stroke="#B2C1BC" stroke-width="0.494108"/>
<line x1="139.069" y1="329.225" x2="180.574" y2="370.73" stroke="#DCDCDC" stroke-width="0.494108"/>
<line x1="138.72" y1="370.73" x2="179.731" y2="329.719" stroke="#DCDCDC" stroke-width="0.494108"/>
<path opacity="0.4" d="M163.195 351.703C166.545 352.362 168.885 353.866 168.885 355.616C168.885 357.973 164.639 359.883 159.402 359.883C154.164 359.883 149.918 357.973 149.918 355.616C149.918 353.866 152.259 352.362 155.608 351.703" stroke="#F3356A" stroke-width="1.48233" stroke-linecap="round" stroke-linejoin="round"/>
<path d="M159.398 355.141V341.864L164.442 344.967C164.809 345.194 164.993 345.307 165.052 345.449C165.103 345.574 165.099 345.714 165.041 345.835C164.974 345.974 164.784 346.077 164.404 346.281L159.398 348.976" stroke="#F3356A" stroke-width="1.48233" stroke-linecap="round" stroke-linejoin="round"/>
<circle cx="159.4" cy="350.399" r="17.2938" stroke="#DCDCDC" stroke-width="0.494108"/>
<rect x="130.247" y="321.247" width="58.3048" height="58.3048" rx="29.1524" stroke="#B2C1BC" stroke-width="0.494108"/>
<line x1="234.069" y1="329.225" x2="275.574" y2="370.73" stroke="#DCDCDC" stroke-width="0.494108"/>
<line x1="233.72" y1="370.73" x2="274.731" y2="329.719" stroke="#DCDCDC" stroke-width="0.494108"/>
<path opacity="0.4" d="M250.605 346.605V345.657M250.605 350.873V349.925M250.605 355.141V354.192" stroke="#F3356A" stroke-width="1.48233" stroke-linecap="round" stroke-linejoin="round"/>
<path d="M244.918 347.364C244.918 345.771 244.918 344.974 245.228 344.365C245.501 343.83 245.936 343.395 246.471 343.122C247.08 342.812 247.877 342.812 249.47 342.812H259.333C260.927 342.812 261.723 342.812 262.332 343.122C262.867 343.395 263.302 343.83 263.575 344.365C263.885 344.974 263.885 345.771 263.885 347.364V353.434C263.885 355.027 263.885 355.824 263.575 356.432C263.302 356.968 262.867 357.403 262.332 357.676C261.723 357.986 260.927 357.986 259.333 357.986H249.47C247.877 357.986 247.08 357.986 246.471 357.676C245.936 357.403 245.501 356.968 245.228 356.432C244.918 355.824 244.918 355.027 244.918 353.434V347.364Z" stroke="#F3356A" stroke-width="1.48233" stroke-linecap="round" stroke-linejoin="round"/>
<circle cx="254.4" cy="350.399" r="17.2938" stroke="#DCDCDC" stroke-width="0.494108"/>
<rect x="225.247" y="321.247" width="58.3048" height="58.3048" rx="29.1524" stroke="#B2C1BC" stroke-width="0.494108"/>
<defs>
<clipPath id="clip0_1287_11034">
<rect width="320" height="415" fill="white"/>
</clipPath>
</defs>
</svg>
