<svg width="1273" height="457" viewBox="0 0 1273 457" fill="none" xmlns="http://www.w3.org/2000/svg">
<g clip-path="url(#clip0_1287_10702)">
<rect width="1273" height="457" rx="20" fill="white"/>
<line x1="1272.5" y1="606" x2="1272.5" y2="6.10133e-05" stroke="#DCDCDC"/>
<line x1="1248.5" y1="606" x2="1248.5" y2="6.10133e-05" stroke="#DCDCDC"/>
<line x1="1224.5" y1="606" x2="1224.5" y2="6.10133e-05" stroke="#DCDCDC"/>
<line x1="1200.5" y1="606" x2="1200.5" y2="6.10133e-05" stroke="#DCDCDC"/>
<line x1="1176.5" y1="606" x2="1176.5" y2="6.10133e-05" stroke="#DCDCDC"/>
<line x1="1152.5" y1="606" x2="1152.5" y2="6.10133e-05" stroke="#DCDCDC"/>
<line x1="1128.5" y1="606" x2="1128.5" y2="6.10133e-05" stroke="#DCDCDC"/>
<line x1="1104.5" y1="606" x2="1104.5" y2="6.10133e-05" stroke="#DCDCDC"/>
<line x1="1080.5" y1="606" x2="1080.5" y2="-2.18557e-08" stroke="#DCDCDC"/>
<line x1="1056.5" y1="606" x2="1056.5" y2="-2.18557e-08" stroke="#DCDCDC"/>
<line x1="1032.5" y1="606" x2="1032.5" y2="-2.18557e-08" stroke="#DCDCDC"/>
<line x1="1008.5" y1="606" x2="1008.5" y2="-2.18557e-08" stroke="#DCDCDC"/>
<line x1="984.5" y1="606" x2="984.5" y2="-2.18557e-08" stroke="#DCDCDC"/>
<line x1="960.5" y1="606" x2="960.5" y2="-2.18557e-08" stroke="#DCDCDC"/>
<line x1="936.5" y1="606" x2="936.5" y2="-2.18557e-08" stroke="#DCDCDC"/>
<line x1="912.5" y1="606" x2="912.5" y2="-2.18557e-08" stroke="#DCDCDC"/>
<line x1="888.5" y1="606" x2="888.5" y2="-2.18557e-08" stroke="#DCDCDC"/>
<line x1="864.5" y1="606" x2="864.5" y2="-2.18557e-08" stroke="#DCDCDC"/>
<line x1="840.5" y1="606" x2="840.5" y2="-2.18557e-08" stroke="#DCDCDC"/>
<line x1="816.5" y1="606" x2="816.5" y2="-2.18557e-08" stroke="#DCDCDC"/>
<line x1="792.5" y1="606" x2="792.5" y2="-2.18557e-08" stroke="#DCDCDC"/>
<line x1="768.5" y1="606" x2="768.5" y2="-2.18557e-08" stroke="#DCDCDC"/>
<line x1="744.5" y1="606" x2="744.5" y2="-2.18557e-08" stroke="#DCDCDC"/>
<line x1="720.5" y1="606" x2="720.5" y2="-2.18557e-08" stroke="#DCDCDC"/>
<line x1="696.5" y1="606" x2="696.5" y2="-2.18557e-08" stroke="#DCDCDC"/>
<line x1="672.5" y1="606" x2="672.5" y2="-2.18557e-08" stroke="#DCDCDC"/>
<line x1="648.5" y1="606" x2="648.5" y2="-2.18557e-08" stroke="#DCDCDC"/>
<line x1="624.5" y1="606" x2="624.5" y2="-2.18557e-08" stroke="#DCDCDC"/>
<line x1="600.5" y1="606" x2="600.5" y2="-2.18557e-08" stroke="#DCDCDC"/>
<line x1="576.5" y1="606" x2="576.5" y2="-2.18557e-08" stroke="#DCDCDC"/>
<line x1="552.5" y1="606" x2="552.5" y2="-2.18557e-08" stroke="#DCDCDC"/>
<line x1="528.5" y1="606" x2="528.5" y2="-2.18557e-08" stroke="#DCDCDC"/>
<line x1="504.5" y1="606" x2="504.5" y2="-2.18557e-08" stroke="#DCDCDC"/>
<line x1="480.5" y1="606" x2="480.5" y2="-2.18557e-08" stroke="#DCDCDC"/>
<line x1="456.5" y1="606" x2="456.5" y2="-2.18557e-08" stroke="#DCDCDC"/>
<line x1="432.5" y1="606" x2="432.5" y2="-2.18557e-08" stroke="#DCDCDC"/>
<line x1="408.5" y1="606" x2="408.5" y2="-2.18557e-08" stroke="#DCDCDC"/>
<line x1="384.5" y1="606" x2="384.5" y2="-6.1057e-05" stroke="#DCDCDC"/>
<line x1="360.5" y1="606" x2="360.5" y2="-6.1057e-05" stroke="#DCDCDC"/>
<line x1="336.5" y1="606" x2="336.5" y2="-6.1057e-05" stroke="#DCDCDC"/>
<line x1="312.5" y1="606" x2="312.5" y2="-6.1057e-05" stroke="#DCDCDC"/>
<line x1="288.5" y1="606" x2="288.5" y2="-6.1057e-05" stroke="#DCDCDC"/>
<line x1="264.5" y1="606" x2="264.5" y2="-6.1057e-05" stroke="#DCDCDC"/>
<line x1="240.5" y1="606" x2="240.5" y2="-6.1057e-05" stroke="#DCDCDC"/>
<line x1="216.5" y1="606" x2="216.5" y2="-6.1057e-05" stroke="#DCDCDC"/>
<line x1="192.5" y1="606" x2="192.5" y2="-6.1057e-05" stroke="#DCDCDC"/>
<line x1="168.5" y1="606" x2="168.5" y2="-6.1057e-05" stroke="#DCDCDC"/>
<line x1="144.5" y1="606" x2="144.5" y2="-6.1057e-05" stroke="#DCDCDC"/>
<line x1="120.5" y1="606" x2="120.5" y2="-6.1057e-05" stroke="#DCDCDC"/>
<line x1="96.5" y1="606" x2="96.5" y2="-6.1057e-05" stroke="#DCDCDC"/>
<line x1="72.5" y1="606" x2="72.5" y2="-6.1057e-05" stroke="#DCDCDC"/>
<line x1="48.5" y1="606" x2="48.5" y2="-6.1057e-05" stroke="#DCDCDC"/>
<line x1="24.5" y1="606" x2="24.5" y2="-6.1057e-05" stroke="#DCDCDC"/>
<line x1="0.5" y1="606" x2="0.500026" y2="-6.1057e-05" stroke="#DCDCDC"/>
<line x1="1440" y1="0.5" x2="1" y2="0.5" stroke="#DCDCDC"/>
<line x1="1440" y1="24.5001" x2="1" y2="24.5001" stroke="#DCDCDC"/>
<line x1="1440" y1="48.5001" x2="1" y2="48.5001" stroke="#DCDCDC"/>
<line x1="1440" y1="72.5002" x2="1" y2="72.5002" stroke="#DCDCDC"/>
<line x1="1440" y1="96.5003" x2="1" y2="96.5003" stroke="#DCDCDC"/>
<line x1="1440" y1="120.5" x2="1" y2="120.5" stroke="#DCDCDC"/>
<line x1="1440" y1="144.5" x2="1" y2="144.5" stroke="#DCDCDC"/>
<line x1="1440" y1="168.5" x2="1" y2="168.5" stroke="#DCDCDC"/>
<line x1="1440" y1="192.501" x2="1" y2="192.501" stroke="#DCDCDC"/>
<line x1="1440" y1="216.501" x2="1" y2="216.501" stroke="#DCDCDC"/>
<line x1="1440" y1="240.501" x2="1" y2="240.501" stroke="#DCDCDC"/>
<line x1="1440" y1="264.501" x2="1" y2="264.501" stroke="#DCDCDC"/>
<line x1="1440" y1="288.501" x2="1" y2="288.501" stroke="#DCDCDC"/>
<line x1="1440" y1="312.501" x2="1" y2="312.501" stroke="#DCDCDC"/>
<line x1="1440" y1="336.501" x2="1" y2="336.501" stroke="#DCDCDC"/>
<line x1="1440" y1="360.501" x2="1" y2="360.501" stroke="#DCDCDC"/>
<line x1="1440" y1="384.501" x2="1" y2="384.501" stroke="#DCDCDC"/>
<line x1="1440" y1="408.501" x2="1" y2="408.501" stroke="#DCDCDC"/>
<line x1="1440" y1="432.501" x2="1" y2="432.501" stroke="#DCDCDC"/>
<line x1="1440" y1="456.501" x2="1" y2="456.501" stroke="#DCDCDC"/>
</g>
<rect x="0.5" y="0.5" width="1272" height="456" rx="19.5" stroke="#DCDCDC"/>
<line x1="115.354" y1="89.6464" x2="199.354" y2="173.646" stroke="#DCDCDC"/>
<line x1="114.646" y1="173.646" x2="197.646" y2="90.6464" stroke="#DCDCDC"/>
<path opacity="0.4" d="M156.502 151.693C167.102 151.693 175.696 143.099 175.696 132.499C175.696 121.899 167.102 113.306 156.502 113.306C145.902 113.306 137.309 121.899 137.309 132.499C137.309 143.099 145.902 151.693 156.502 151.693Z" stroke="#F3356A" stroke-width="3" stroke-linecap="round" stroke-linejoin="round"/>
<path d="M161.73 125.331C162.668 125.019 163.137 124.862 163.449 124.974C163.72 125.07 163.934 125.284 164.03 125.555C164.141 125.867 163.985 126.336 163.673 127.273L160.817 135.839C160.728 136.106 160.684 136.239 160.608 136.35C160.541 136.449 160.456 136.533 160.358 136.601C160.247 136.676 160.113 136.721 159.846 136.81L151.281 139.665C150.343 139.978 149.874 140.134 149.563 140.023C149.291 139.926 149.078 139.713 148.981 139.441C148.87 139.129 149.026 138.661 149.339 137.723L152.194 129.157C152.283 128.89 152.327 128.757 152.403 128.646C152.47 128.548 152.555 128.463 152.653 128.396C152.764 128.32 152.898 128.275 153.165 128.186L161.73 125.331Z" stroke="#F3356A" stroke-width="3" stroke-linecap="round" stroke-linejoin="round"/>
<circle cx="156.5" cy="132.5" r="35" stroke="#DCDCDC"/>
<rect x="97.5" y="73.5" width="118" height="118" rx="59" stroke="#B2C1BC"/>
<line x1="307.354" y1="89.6464" x2="391.354" y2="173.646" stroke="#DCDCDC"/>
<line x1="306.646" y1="173.646" x2="389.646" y2="90.6464" stroke="#DCDCDC"/>
<path opacity="0.4" d="M352.555 122.37H364.127C364.985 122.37 365.415 122.37 365.666 122.55C365.885 122.708 366.027 122.95 366.059 123.218C366.095 123.525 365.886 123.901 365.469 124.651L362.649 129.728C362.497 130 362.422 130.136 362.392 130.281C362.366 130.408 362.366 130.54 362.392 130.667C362.422 130.811 362.497 130.947 362.649 131.22L365.469 136.297C365.886 137.047 366.095 137.422 366.059 137.729C366.027 137.997 365.885 138.24 365.666 138.397C365.415 138.578 364.985 138.578 364.127 138.578H349.548C348.473 138.578 347.935 138.578 347.525 138.369C347.163 138.185 346.87 137.891 346.686 137.53C346.477 137.119 346.477 136.582 346.477 135.507V130.474" stroke="#F3356A" stroke-width="3" stroke-linecap="round" stroke-linejoin="round"/>
<path d="M339.382 150.733L331.278 118.318M334.317 130.473H349.48C350.555 130.473 351.092 130.473 351.503 130.264C351.864 130.08 352.157 129.786 352.342 129.425C352.551 129.015 352.551 128.477 352.551 127.402V117.336C352.551 116.261 352.551 115.724 352.342 115.313C352.157 114.952 351.864 114.658 351.503 114.474C351.092 114.265 350.555 114.265 349.48 114.265H334.198C332.857 114.265 332.187 114.265 331.728 114.543C331.327 114.786 331.028 115.169 330.889 115.618C330.731 116.13 330.894 116.78 331.219 118.081L334.317 130.473Z" stroke="#F3356A" stroke-width="3" stroke-linecap="round" stroke-linejoin="round"/>
<circle cx="348.5" cy="132.5" r="35" stroke="#DCDCDC"/>
<rect x="289.5" y="73.5" width="118" height="118" rx="59" stroke="#B2C1BC"/>
<line x1="499.354" y1="89.6464" x2="583.354" y2="173.646" stroke="#DCDCDC"/>
<line x1="498.646" y1="173.646" x2="581.646" y2="90.6464" stroke="#DCDCDC"/>
<path opacity="0.4" d="M522.629 139.496L526.291 137.382C526.49 137.267 526.723 137.228 526.948 137.27L534.154 138.618C534.746 138.729 535.293 138.273 535.29 137.671L535.262 131.357C535.261 131.185 535.307 131.017 535.393 130.869L539.03 124.643C539.219 124.319 539.202 123.914 538.986 123.607L532.863 114.891M559.674 133.46C559.674 133.46 554.664 133.341 551.061 131.54C549.142 130.581 543.384 123.863 553.94 118.794" stroke="#F3356A" stroke-width="3" stroke-linecap="round" stroke-linejoin="round"/>
<path d="M541.462 151.669C541.144 151.685 540.824 151.693 540.502 151.693C529.902 151.693 521.309 143.099 521.309 132.499C521.309 121.899 529.902 113.306 540.502 113.306C551.102 113.306 559.696 121.899 559.696 132.499C559.696 132.821 559.688 133.141 559.672 133.459M549.634 151.577L543.556 135.553L559.58 141.631L552.474 144.471L549.634 151.577Z" stroke="#F3356A" stroke-width="3" stroke-linecap="round" stroke-linejoin="round"/>
<circle cx="540.5" cy="132.5" r="35" stroke="#DCDCDC"/>
<rect x="481.5" y="73.5" width="118" height="118" rx="59" stroke="#B2C1BC"/>
<line x1="691.354" y1="89.6464" x2="775.354" y2="173.646" stroke="#DCDCDC"/>
<line x1="690.646" y1="173.646" x2="773.646" y2="90.6464" stroke="#DCDCDC"/>
<path d="M716.025 130.089C714.882 129.645 714.311 129.423 714.144 129.103C713.999 128.825 713.999 128.494 714.143 128.217C714.31 127.896 714.881 127.673 716.023 127.228L748.436 114.579C749.468 114.176 749.983 113.975 750.312 114.085C750.599 114.181 750.823 114.405 750.919 114.691C751.029 115.021 750.827 115.536 750.425 116.567L737.776 148.981C737.33 150.123 737.107 150.694 736.787 150.86C736.509 151.005 736.179 151.005 735.901 150.86C735.581 150.693 735.359 150.122 734.914 148.979L729.87 136.008C729.78 135.776 729.735 135.66 729.665 135.563C729.603 135.476 729.528 135.4 729.441 135.339C729.344 135.269 729.228 135.224 728.996 135.134L716.025 130.089Z" stroke="#F3356A" stroke-width="3" stroke-linecap="round" stroke-linejoin="round"/>
<circle cx="732.5" cy="132.5" r="35" stroke="#DCDCDC"/>
<rect x="673.5" y="73.5" width="118" height="118" rx="59" stroke="#B2C1BC"/>
<line x1="883.354" y1="89.6464" x2="967.354" y2="173.646" stroke="#DCDCDC"/>
<line x1="882.646" y1="173.646" x2="965.646" y2="90.6464" stroke="#DCDCDC"/>
<path opacity="0.4" d="M932.18 135.138C938.958 136.471 943.696 139.515 943.696 143.057C943.696 147.827 935.102 151.694 924.502 151.694C913.902 151.694 905.309 147.827 905.309 143.057C905.309 139.515 910.046 136.471 916.825 135.138" stroke="#F3356A" stroke-width="3" stroke-linecap="round" stroke-linejoin="round"/>
<path d="M924.5 142.096V115.225L934.707 121.506C935.451 121.964 935.823 122.193 935.942 122.482C936.046 122.733 936.037 123.017 935.92 123.263C935.784 123.544 935.4 123.751 934.63 124.165L924.5 129.62" stroke="#F3356A" stroke-width="3" stroke-linecap="round" stroke-linejoin="round"/>
<circle cx="924.5" cy="132.5" r="35" stroke="#DCDCDC"/>
<rect x="865.5" y="73.5" width="118" height="118" rx="59" stroke="#B2C1BC"/>
<line x1="1075.35" y1="89.6464" x2="1159.35" y2="173.646" stroke="#DCDCDC"/>
<line x1="1074.65" y1="173.646" x2="1157.65" y2="90.6464" stroke="#DCDCDC"/>
<path opacity="0.4" d="M1108.82 124.822V122.902M1108.82 133.459V131.539M1108.82 142.096V140.176" stroke="#F3356A" stroke-width="3" stroke-linecap="round" stroke-linejoin="round"/>
<path d="M1097.31 126.357C1097.31 123.132 1097.31 121.52 1097.94 120.288C1098.49 119.205 1099.37 118.324 1100.45 117.772C1101.68 117.144 1103.3 117.144 1106.52 117.144H1126.48C1129.71 117.144 1131.32 117.144 1132.55 117.772C1133.64 118.324 1134.52 119.205 1135.07 120.288C1135.7 121.52 1135.7 123.132 1135.7 126.357V138.641C1135.7 141.866 1135.7 143.478 1135.07 144.71C1134.52 145.793 1133.64 146.674 1132.55 147.226C1131.32 147.854 1129.71 147.854 1126.48 147.854H1106.52C1103.3 147.854 1101.68 147.854 1100.45 147.226C1099.37 146.674 1098.49 145.793 1097.94 144.71C1097.31 143.478 1097.31 141.866 1097.31 138.641V126.357Z" stroke="#F3356A" stroke-width="3" stroke-linecap="round" stroke-linejoin="round"/>
<circle cx="1116.5" cy="132.5" r="35" stroke="#DCDCDC"/>
<rect x="1057.5" y="73.5" width="118" height="118" rx="59" stroke="#B2C1BC"/>
<line x1="115.354" y1="281.646" x2="199.354" y2="365.646" stroke="#DCDCDC"/>
<line x1="114.646" y1="365.646" x2="197.646" y2="282.646" stroke="#DCDCDC"/>
<path opacity="0.4" d="M156.502 343.693C167.102 343.693 175.696 335.099 175.696 324.499C175.696 313.899 167.102 305.306 156.502 305.306C145.902 305.306 137.309 313.899 137.309 324.499C137.309 335.099 145.902 343.693 156.502 343.693Z" stroke="#F3356A" stroke-width="3" stroke-linecap="round" stroke-linejoin="round"/>
<path d="M164.179 324.499L156.502 316.822M156.502 316.822L148.824 324.499M156.502 316.822V332.176" stroke="#F3356A" stroke-width="3" stroke-linecap="round" stroke-linejoin="round"/>
<circle cx="156.5" cy="324.5" r="35" stroke="#DCDCDC"/>
<rect x="97.5" y="265.5" width="118" height="118" rx="59" stroke="#B2C1BC"/>
<line x1="307.354" y1="281.646" x2="391.354" y2="365.646" stroke="#DCDCDC"/>
<line x1="306.646" y1="365.646" x2="389.646" y2="282.646" stroke="#DCDCDC"/>
<path opacity="0.4" d="M360.018 309.144H364.817C365.711 309.144 366.158 309.144 366.511 309.29C366.981 309.485 367.355 309.859 367.55 310.329C367.696 310.682 367.696 311.129 367.696 312.023V312.983C367.696 314.768 367.696 315.66 367.499 316.393C366.967 318.38 365.415 319.932 363.428 320.464C362.696 320.66 361.803 320.66 360.018 320.66M336.986 309.144H332.188C331.293 309.144 330.846 309.144 330.493 309.29C330.023 309.485 329.649 309.859 329.455 310.329C329.309 310.682 329.309 311.129 329.309 312.023V312.983C329.309 314.768 329.309 315.66 329.505 316.393C330.037 318.38 331.589 319.932 333.576 320.464C334.309 320.66 335.201 320.66 336.986 320.66" stroke="#F3356A" stroke-width="3" stroke-linecap="round" stroke-linejoin="round"/>
<path d="M348.501 330.257C342.14 330.257 336.984 325.101 336.984 318.741V308.078C336.984 307.284 336.984 306.886 337.1 306.568C337.294 306.035 337.714 305.615 338.247 305.421C338.565 305.306 338.962 305.306 339.757 305.306H357.244C358.039 305.306 358.436 305.306 358.754 305.421C359.287 305.615 359.707 306.035 359.901 306.568C360.017 306.886 360.017 307.284 360.017 308.078V318.741C360.017 325.101 354.861 330.257 348.501 330.257ZM348.501 330.257V336.015M339.757 343.693H357.244C357.715 343.693 358.097 343.311 358.097 342.84C358.097 339.071 355.042 336.015 351.273 336.015H345.728C341.959 336.015 338.904 339.071 338.904 342.84C338.904 343.311 339.286 343.693 339.757 343.693Z" stroke="#F3356A" stroke-width="3" stroke-linecap="round" stroke-linejoin="round"/>
<circle cx="348.5" cy="324.5" r="35" stroke="#DCDCDC"/>
<rect x="289.5" y="265.5" width="118" height="118" rx="59" stroke="#B2C1BC"/>
<line x1="499.354" y1="281.646" x2="583.354" y2="365.646" stroke="#DCDCDC"/>
<line x1="498.646" y1="365.646" x2="581.646" y2="282.646" stroke="#DCDCDC"/>
<path opacity="0.4" d="M542.653 329.957L552.017 343.691M538.348 329.957L528.984 343.691M544.339 326.801C544.339 328.921 542.621 330.639 540.501 330.639C538.38 330.639 536.662 328.921 536.662 326.801C536.662 324.681 538.38 322.962 540.501 322.962C542.621 322.962 544.339 324.681 544.339 326.801Z" stroke="#F3356A" stroke-width="3" stroke-linecap="round" stroke-linejoin="round"/>
<path d="M526.675 318.107C526.535 317.588 526.466 317.328 526.514 317.103C526.556 316.905 526.66 316.725 526.81 316.589C526.982 316.435 527.241 316.365 527.76 316.226L550.379 310.166L552.862 319.436L530.244 325.496C529.725 325.635 529.465 325.705 529.24 325.657C529.042 325.615 528.862 325.511 528.726 325.36C528.572 325.189 528.503 324.93 528.364 324.41L526.675 318.107Z" stroke="#F3356A" stroke-width="3" stroke-linecap="round" stroke-linejoin="round"/>
<path d="M551.471 314.244C550.915 312.168 550.637 311.13 550.828 310.228C550.997 309.435 551.412 308.716 552.015 308.173C552.699 307.557 553.738 307.279 555.814 306.722C556.334 306.583 556.593 306.514 556.819 306.561C557.017 306.604 557.197 306.707 557.332 306.858C557.486 307.029 557.556 307.289 557.695 307.808L560.378 317.819C560.517 318.338 560.586 318.598 560.538 318.823C560.496 319.022 560.392 319.201 560.242 319.337C560.071 319.491 559.811 319.561 559.292 319.7C557.215 320.256 556.177 320.535 555.275 320.343C554.482 320.174 553.763 319.759 553.221 319.157C552.604 318.472 552.326 317.433 551.769 315.357L551.471 314.244Z" stroke="#F3356A" stroke-width="3" stroke-linecap="round" stroke-linejoin="round"/>
<path d="M521.609 321.451C521.47 320.932 521.401 320.672 521.449 320.447C521.491 320.249 521.595 320.069 521.745 319.933C521.916 319.779 522.176 319.71 522.695 319.571L525.291 318.875C525.81 318.736 526.069 318.666 526.295 318.714C526.493 318.756 526.673 318.86 526.808 319.011C526.963 319.182 527.032 319.442 527.171 319.961L527.867 322.556C528.006 323.076 528.075 323.335 528.028 323.56C527.985 323.759 527.882 323.939 527.731 324.074C527.56 324.228 527.3 324.298 526.781 324.437L524.185 325.132C523.666 325.272 523.407 325.341 523.181 325.293C522.983 325.251 522.803 325.147 522.668 324.997C522.514 324.825 522.444 324.566 522.305 324.047L521.609 321.451Z" stroke="#F3356A" stroke-width="3" stroke-linecap="round" stroke-linejoin="round"/>
<circle cx="540.5" cy="324.5" r="35" stroke="#DCDCDC"/>
<rect x="481.5" y="265.5" width="118" height="118" rx="59" stroke="#B2C1BC"/>
<line x1="691.354" y1="281.646" x2="775.354" y2="365.646" stroke="#DCDCDC"/>
<line x1="690.646" y1="365.646" x2="773.646" y2="282.646" stroke="#DCDCDC"/>
<path d="M715.227 316.438C715.227 313.213 715.227 311.601 715.854 310.369C716.406 309.285 717.287 308.405 718.371 307.852C719.602 307.225 721.215 307.225 724.439 307.225H740.562C743.787 307.225 745.399 307.225 746.631 307.852C747.714 308.405 748.595 309.285 749.147 310.369C749.775 311.601 749.775 313.213 749.775 316.438V327.378C749.775 330.061 749.775 331.402 749.337 332.461C748.752 333.872 747.631 334.992 746.22 335.577C745.162 336.015 743.821 336.015 741.138 336.015C740.2 336.015 739.731 336.015 739.296 336.118C738.716 336.255 738.176 336.525 737.719 336.907C737.375 337.193 737.094 337.568 736.531 338.318L733.729 342.055C733.312 342.61 733.104 342.888 732.849 342.988C732.625 343.075 732.377 343.075 732.153 342.988C731.897 342.888 731.689 342.61 731.272 342.055L728.47 338.318C727.907 337.568 727.626 337.193 727.283 336.907C726.825 336.525 726.285 336.255 725.705 336.118C725.27 336.015 724.801 336.015 723.864 336.015C721.181 336.015 719.839 336.015 718.781 335.577C717.37 334.992 716.249 333.872 715.665 332.461C715.227 331.402 715.227 330.061 715.227 327.378V316.438Z" stroke="#F3356A" stroke-width="3" stroke-linecap="round" stroke-linejoin="round"/>
<circle cx="732.5" cy="324.5" r="35" stroke="#DCDCDC"/>
<rect x="673.5" y="265.5" width="118" height="118" rx="59" stroke="#B2C1BC"/>
<line x1="883.354" y1="281.646" x2="967.354" y2="365.646" stroke="#DCDCDC"/>
<line x1="882.646" y1="365.646" x2="965.646" y2="282.646" stroke="#DCDCDC"/>
<path opacity="0.4" d="M909.145 314.902H928.338C934.698 314.902 939.854 320.058 939.854 326.418C939.854 332.779 934.698 337.935 928.338 337.935H909.145" stroke="#F3356A" stroke-width="3" stroke-linecap="round" stroke-linejoin="round"/>
<path d="M916.822 307.225L909.145 314.902L916.822 322.58" stroke="#F3356A" stroke-width="4" stroke-linecap="round" stroke-linejoin="round"/>
<circle cx="924.5" cy="324.5" r="35" stroke="#DCDCDC"/>
<rect x="865.5" y="265.5" width="118" height="118" rx="59" stroke="#B2C1BC"/>
<line x1="1075.35" y1="281.646" x2="1159.35" y2="365.646" stroke="#DCDCDC"/>
<line x1="1074.65" y1="365.646" x2="1157.65" y2="282.646" stroke="#DCDCDC"/>
<path opacity="0.4" d="M1116.5 343.693C1127.1 343.693 1135.7 335.099 1135.7 324.499C1135.7 313.899 1127.1 305.306 1116.5 305.306C1105.9 305.306 1097.31 313.899 1097.31 324.499C1097.31 335.099 1105.9 343.693 1116.5 343.693Z" stroke="#F3356A" stroke-width="3" stroke-linecap="round" stroke-linejoin="round"/>
<path d="M1116.5 316.822V324.499M1116.5 332.176H1116.52" stroke="#F3356A" stroke-width="3" stroke-linecap="round" stroke-linejoin="round"/>
<circle cx="1116.5" cy="324.5" r="35" stroke="#DCDCDC"/>
<rect x="1057.5" y="265.5" width="118" height="118" rx="59" stroke="#B2C1BC"/>
<defs>
<clipPath id="clip0_1287_10702">
<rect width="1273" height="457" rx="20" fill="white"/>
</clipPath>
</defs>
</svg>
