<svg width="24" height="24" viewBox="0 0 24 24" fill="none" xmlns="http://www.w3.org/2000/svg">
<path d="M17.6531 16.898C16.4286 17.8776 14.7143 18.6122 13 18.6122C9.08164 18.6122 6.38775 15.6735 6.38775 11.7551C6.38775 7.83673 9.08164 5.14285 13 5.14285C14.7143 5.14285 16.4286 5.63265 17.6531 6.85714L18.3878 7.59183L22.3061 3.91836L21.3265 3.18367C19.1225 1.22448 16.1837 0 13 0C6.14286 0 1 5.14286 1 12C1 18.8571 6.14286 24 13 24C16.1837 24 19.1225 22.7755 21.3265 20.8163L22.3061 20.0816L18.3878 16.1633L17.6531 16.898Z" fill="#4F4F4F"/>
<path d="M12.7551 15.9183C14.9192 15.9183 16.6735 14.164 16.6735 11.9999C16.6735 9.83586 14.9192 8.08154 12.7551 8.08154C10.591 8.08154 8.83673 9.83586 8.83673 11.9999C8.83673 14.164 10.591 15.9183 12.7551 15.9183Z" fill="#4F4F4F"/>
</svg>
