<svg width="47" height="47" viewBox="0 0 47 47" fill="none" xmlns="http://www.w3.org/2000/svg">
<circle cx="23.5" cy="23.5" r="23.5" fill="#38BC64"/>
<path opacity="0.4" d="M33 27.2V25.1331C33 24.7105 33 24.4992 32.971 24.2923C32.9453 24.1085 32.9026 23.9275 32.8434 23.7515C32.7767 23.5535 32.6822 23.3645 32.4932 22.9865L30.3267 18.6534C29.8451 17.6902 29.6043 17.2086 29.2451 16.8567C28.9274 16.5456 28.5445 16.309 28.1241 16.164C27.6487 16 27.1103 16 26.0334 16H19.9666C18.8897 16 18.3513 16 17.8759 16.164C17.4555 16.309 17.0726 16.5456 16.7549 16.8567C16.3957 17.2086 16.1549 17.6902 15.6733 18.6534L13.5067 22.9865C13.3178 23.3645 13.2233 23.5535 13.1566 23.7515C13.0974 23.9275 13.0547 24.1085 13.029 24.2923C13 24.4992 13 24.7105 13 25.1331V27.2" stroke="white" stroke-width="2" stroke-linecap="round" stroke-linejoin="round"/>
<path d="M13 25.6C13 25.0399 13 24.7599 13.109 24.546C13.2049 24.3578 13.3578 24.2049 13.546 24.109C13.7599 24 14.0399 24 14.6 24H16.882C17.5672 24 18.1936 24.3871 18.5 25C18.8064 25.6129 19.4328 26 20.118 26H25.882C26.5672 26 27.1936 25.6129 27.5 25C27.8064 24.3871 28.4328 24 29.118 24H31.4C31.9601 24 32.2401 24 32.454 24.109C32.6422 24.2049 32.7951 24.3578 32.891 24.546C33 24.7599 33 25.0399 33 25.6V27.2C33 28.8802 33 29.7202 32.673 30.362C32.3854 30.9265 31.9265 31.3854 31.362 31.673C30.7202 32 29.8802 32 28.2 32H17.8C16.1198 32 15.2798 32 14.638 31.673C14.0735 31.3854 13.6146 30.9265 13.327 30.362C13 29.7202 13 28.8802 13 27.2V25.6Z" stroke="white" stroke-width="2" stroke-linecap="round" stroke-linejoin="round"/>
</svg>
