<svg width="52" height="52" viewBox="0 0 52 52" fill="none" xmlns="http://www.w3.org/2000/svg">
<rect opacity="0.2" x="0.5" y="0.5" width="51" height="51" rx="25.5" fill="#38BC64" fill-opacity="0.5" stroke="#38BC64"/>
<path opacity="0.4" d="M20.375 24.75H16.75C16.0499 24.75 15.6999 24.75 15.4325 24.8862C15.1973 25.0061 15.0061 25.1973 14.8862 25.4325C14.75 25.6999 14.75 26.0499 14.75 26.75V37.25M31.625 24.75H35.25C35.9501 24.75 36.3001 24.75 36.5675 24.8862C36.8027 25.0061 36.9939 25.1973 37.1138 25.4325C37.25 25.6999 37.25 26.0499 37.25 26.75V37.25" stroke="#38BC64" stroke-width="1.5" stroke-linecap="round" stroke-linejoin="round"/>
<path d="M31.625 37.25V18.75C31.625 17.3499 31.625 16.6498 31.3525 16.115C31.1128 15.6446 30.7304 15.2622 30.26 15.0225C29.7252 14.75 29.0251 14.75 27.625 14.75H24.375C22.9749 14.75 22.2748 14.75 21.74 15.0225C21.2696 15.2622 20.8872 15.6446 20.6475 16.115C20.375 16.6498 20.375 17.3499 20.375 18.75V37.25M38.5 37.25H13.5M24.75 19.75H27.25M24.75 24.75H27.25M24.75 29.75H27.25" stroke="#38BC64" stroke-width="1.5" stroke-linecap="round" stroke-linejoin="round"/>
</svg>
