<svg width="66" height="66" viewBox="0 0 66 66" fill="none" xmlns="http://www.w3.org/2000/svg">
<circle cx="33" cy="33" r="33" fill="#38BC64"/>
<path opacity="0.4" d="M41.3346 32.9998C41.3346 37.6022 37.6037 41.3332 33.0013 41.3332C28.3989 41.3332 24.668 37.6022 24.668 32.9998C24.668 28.3975 28.3989 24.6665 33.0013 24.6665" stroke="white" stroke-width="2" stroke-linecap="round" stroke-linejoin="round"/>
<path d="M39.6653 26.3335V21.3335L44.6653 16.3335L46.332 19.6668L49.6653 21.3335L44.6653 26.3335H39.6653ZM39.6653 26.3335L32.9986 33.0001M49.6654 33.0002C49.6654 42.2049 42.2034 49.6668 32.9987 49.6668C23.794 49.6668 16.332 42.2049 16.332 33.0002C16.332 23.7954 23.794 16.3335 32.9987 16.3335" stroke="white" stroke-width="2" stroke-linecap="round" stroke-linejoin="round"/>
</svg>
