<svg width="52" height="52" viewBox="0 0 52 52" fill="none" xmlns="http://www.w3.org/2000/svg">
<rect opacity="0.2" x="0.5" y="0.5" width="51" height="51" rx="25.5" fill="#38BC64" fill-opacity="0.5" stroke="#38BC64"/>
<path opacity="0.4" d="M33.25 33.5C34.6501 33.5 35.3502 33.5 35.885 33.2275C36.3554 32.9878 36.7378 32.6054 36.9775 32.135C37.25 31.6002 37.25 30.9001 37.25 29.5V18.75C37.25 17.3499 37.25 16.6498 36.9775 16.115C36.7378 15.6446 36.3554 15.2622 35.885 15.0225C35.3502 14.75 34.6501 14.75 33.25 14.75L18.75 14.75C17.3499 14.75 16.6498 14.75 16.115 15.0225C15.6446 15.2622 15.2622 15.6446 15.0225 16.115C14.75 16.6498 14.75 17.3499 14.75 18.75L14.75 29.5C14.75 30.9001 14.75 31.6002 15.0225 32.135C15.2622 32.6054 15.6446 32.9878 16.115 33.2275C16.6498 33.5 17.3499 33.5 18.75 33.5L33.25 33.5Z" stroke="#38BC64" stroke-width="1.5" stroke-linecap="round" stroke-linejoin="round"/>
<path d="M18.5 37.25H22.25M29.75 37.25H33.5" stroke="#38BC64" stroke-width="1.5" stroke-linecap="round" stroke-linejoin="round"/>
<path d="M32.875 19.125V29.125M25.375 24.125C25.375 25.8509 23.9759 27.25 22.25 27.25C20.5241 27.25 19.125 25.8509 19.125 24.125C19.125 22.3991 20.5241 21 22.25 21C23.9759 21 25.375 22.3991 25.375 24.125Z" stroke="#38BC64" stroke-width="1.5" stroke-linecap="round" stroke-linejoin="round"/>
</svg>
