<svg width="52" height="52" viewBox="0 0 52 52" fill="none" xmlns="http://www.w3.org/2000/svg">
<rect opacity="0.2" x="0.5" y="0.5" width="51" height="51" rx="25.5" fill="#38BC64" fill-opacity="0.5" stroke="#38BC64"/>
<path d="M29.75 16.75C29.75 16.0499 29.75 15.6999 29.6138 15.4325C29.4939 15.1973 29.3027 15.0061 29.0675 14.8862C28.8001 14.75 28.4501 14.75 27.75 14.75H24.25C23.5499 14.75 23.1999 14.75 22.9325 14.8862C22.6973 15.0061 22.5061 15.1973 22.3862 15.4325C22.25 15.6999 22.25 16.0499 22.25 16.75V20.25C22.25 20.9501 22.25 21.3001 22.1138 21.5675C21.9939 21.8027 21.8027 21.9939 21.5675 22.1138C21.3001 22.25 20.9501 22.25 20.25 22.25H16.75C16.0499 22.25 15.6999 22.25 15.4325 22.3862C15.1973 22.5061 15.0061 22.6973 14.8862 22.9325C14.75 23.1999 14.75 23.5499 14.75 24.25V27.75C14.75 28.4501 14.75 28.8001 14.8862 29.0675C15.0061 29.3027 15.1973 29.4939 15.4325 29.6138C15.6999 29.75 16.0499 29.75 16.75 29.75H20.25C20.9501 29.75 21.3001 29.75 21.5675 29.8862C21.8027 30.0061 21.9939 30.1973 22.1138 30.4325C22.25 30.6999 22.25 31.0499 22.25 31.75V35.25C22.25 35.9501 22.25 36.3001 22.3862 36.5675C22.5061 36.8027 22.6973 36.9939 22.9325 37.1138C23.1999 37.25 23.5499 37.25 24.25 37.25H27.75C28.4501 37.25 28.8001 37.25 29.0675 37.1138C29.3027 36.9939 29.4939 36.8027 29.6138 36.5675C29.75 36.3001 29.75 35.9501 29.75 35.25V31.75C29.75 31.0499 29.75 30.6999 29.8862 30.4325C30.0061 30.1973 30.1973 30.0061 30.4325 29.8862C30.6999 29.75 31.0499 29.75 31.75 29.75H35.25C35.9501 29.75 36.3001 29.75 36.5675 29.6138C36.8027 29.4939 36.9939 29.3027 37.1138 29.0675C37.25 28.8001 37.25 28.4501 37.25 27.75V24.25C37.25 23.5499 37.25 23.1999 37.1138 22.9325C36.9939 22.6973 36.8027 22.5061 36.5675 22.3862C36.3001 22.25 35.9501 22.25 35.25 22.25L31.75 22.25C31.0499 22.25 30.6999 22.25 30.4325 22.1138C30.1973 21.9939 30.0061 21.8027 29.8862 21.5675C29.75 21.3001 29.75 20.9501 29.75 20.25V16.75Z" stroke="#38BC64" stroke-width="1.5" stroke-linecap="round" stroke-linejoin="round"/>
</svg>
