<svg width="102" height="102" viewBox="0 0 102 102" fill="none" xmlns="http://www.w3.org/2000/svg">
<path opacity="0.4" d="M51 51.0001L43.1664 44.4721C42.0025 43.5022 41.4205 43.0172 41.0022 42.4227C40.6315 41.896 40.3562 41.3082 40.1889 40.6863C40 39.9843 40 39.2268 40 37.7117V32.6667M51 51.0001L58.8336 44.4721C59.9975 43.5022 60.5795 43.0172 60.9978 42.4227C61.3685 41.896 61.6438 41.3082 61.8111 40.6863C62 39.9843 62 39.2268 62 37.7117V32.6667M51 51.0001L43.1664 57.5281C42.0025 58.498 41.4205 58.983 41.0022 59.5774C40.6315 60.1042 40.3562 60.6919 40.1889 61.3139C40 62.0159 40 62.7734 40 64.2884V69.3334M51 51.0001L58.8336 57.5281C59.9975 58.498 60.5795 58.983 60.9978 59.5774C61.3685 60.1042 61.6438 60.6919 61.8111 61.3139C62 62.0159 62 62.7734 62 64.2884V69.3334" stroke="white" stroke-width="3" stroke-linecap="round" stroke-linejoin="round"/>
<path d="M36.335 32.6667H65.6683M36.335 69.3334H65.6683" stroke="white" stroke-width="3" stroke-linecap="round" stroke-linejoin="round"/>
<rect opacity="0.5" x="0.5" y="0.5" width="101" height="101" rx="50.5" fill="#38BC64" fill-opacity="0.5" stroke="#38BC64"/>
</svg>
