<svg width="64" height="64" viewBox="0 0 64 64" fill="none" xmlns="http://www.w3.org/2000/svg">
<path opacity="0.4" d="M19.582 36.8602L22.1263 35.3914C22.2641 35.3118 22.4258 35.2842 22.5822 35.3135L27.5882 36.2504C27.9996 36.3274 28.3794 36.0107 28.3775 35.5921L28.358 31.2059C28.3575 31.0868 28.3889 30.9696 28.449 30.8667L30.9753 26.5416C31.1068 26.3165 31.095 26.0354 30.9452 25.8221L26.6916 19.7676M45.3166 32.6667C45.3166 32.6667 41.8361 32.5846 39.3333 31.3334C37.9998 30.6667 34 26.0001 41.3333 22.4787" stroke="white" stroke-width="2" stroke-linecap="round" stroke-linejoin="round"/>
<path d="M32.668 45.3163C32.4471 45.3272 32.2249 45.3327 32.0013 45.3327C24.6375 45.3327 18.668 39.3631 18.668 31.9993C18.668 24.6356 24.6375 18.666 32.0013 18.666C39.3651 18.666 45.3346 24.6356 45.3346 31.9993C45.3346 32.2229 45.3291 32.4452 45.3183 32.666M38.345 45.2524L34.1226 34.1207L45.2544 38.3431L40.3182 40.3162L38.345 45.2524Z" stroke="white" stroke-width="2" stroke-linecap="round" stroke-linejoin="round"/>
<rect opacity="0.5" x="0.5" y="0.5" width="63" height="63" rx="31.5" fill="#38BC64" fill-opacity="0.5" stroke="#38BC64"/>
</svg>
