<svg width="64" height="64" viewBox="0 0 64 64" fill="none" xmlns="http://www.w3.org/2000/svg">
<path opacity="0.4" d="M37.3346 33.832C42.0437 34.7579 45.3346 36.8724 45.3346 39.3328C45.3346 42.6465 39.3651 45.3328 32.0013 45.3328C24.6375 45.3328 18.668 42.6465 18.668 39.3328C18.668 36.8724 21.9589 34.7579 26.668 33.832" stroke="white" stroke-width="2" stroke-linecap="round" stroke-linejoin="round"/>
<path d="M32 38.6667L32 28M32 28C34.2091 28 36 26.2091 36 24C36 21.7909 34.2091 20 32 20C29.7909 20 28 21.7909 28 24C28 26.2091 29.7909 28 32 28Z" stroke="white" stroke-width="2" stroke-linecap="round" stroke-linejoin="round"/>
<rect opacity="0.5" x="0.5" y="0.5" width="63" height="63" rx="31.5" fill="#38BC64" fill-opacity="0.5" stroke="#38BC64"/>
</svg>
