<svg width="64" height="65" viewBox="0 0 64 65" fill="none" xmlns="http://www.w3.org/2000/svg">
<path d="M18.5539 31.9295C17.7601 31.6208 17.3632 31.4664 17.2473 31.244C17.1469 31.0512 17.1467 30.8216 17.2469 30.6287C17.3626 30.4061 17.7593 30.2513 18.5527 29.9417L41.0697 21.1545C41.7859 20.875 42.1441 20.7353 42.3729 20.8117C42.5716 20.8781 42.7276 21.0341 42.794 21.2328C42.8704 21.4616 42.7307 21.8198 42.4512 22.536L33.664 45.053C33.3544 45.8464 33.1996 46.2432 32.9771 46.3588C32.7841 46.459 32.5545 46.4589 32.3617 46.3584C32.1393 46.2425 31.9849 45.8456 31.6762 45.0518L28.1721 36.0412C28.1094 35.88 28.0781 35.7995 28.0297 35.7316C27.9868 35.6715 27.9342 35.6189 27.8741 35.576C27.8062 35.5276 27.7257 35.4963 27.5645 35.4336L18.5539 31.9295Z" stroke="white" stroke-width="2" stroke-linecap="round" stroke-linejoin="round"/>
<rect opacity="0.5" x="0.5" y="1.10352" width="63" height="63" rx="31.5" fill="#38BC64" fill-opacity="0.5" stroke="#38BC64"/>
</svg>
