<svg width="64" height="64" viewBox="0 0 64 64" fill="none" xmlns="http://www.w3.org/2000/svg">
<path opacity="0.4" d="M39.7333 43.9993C41.2268 43.9993 41.9735 43.9994 42.544 43.7087C43.0457 43.453 43.4537 43.0451 43.7094 42.5433C44 41.9729 44 41.2262 44 39.7327V38.9327C44 37.4392 44 36.6925 43.7094 36.122C43.4537 35.6203 43.0457 35.2123 42.544 34.9567C41.9735 34.666 41.2268 34.666 39.7333 34.666L24.2667 34.666C22.7732 34.666 22.0265 34.666 21.456 34.9567C20.9543 35.2123 20.5463 35.6203 20.2906 36.122C20 36.6925 20 37.4392 20 38.9327L20 39.7327C20 41.2262 20 41.9729 20.2906 42.5433C20.5463 43.0451 20.9543 43.453 21.456 43.7087C22.0265 43.9993 22.7732 43.9993 24.2667 43.9993L39.7333 43.9993Z" stroke="white" stroke-width="2" stroke-linecap="round" stroke-linejoin="round"/>
<path d="M39.7333 29.3333C41.2268 29.3333 41.9735 29.3333 42.544 29.0427C43.0457 28.787 43.4537 28.3791 43.7094 27.8773C44 27.3069 44 26.5601 44 25.0667V24.2667C44 22.7732 44 22.0265 43.7094 21.456C43.4537 20.9543 43.0457 20.5463 42.544 20.2907C41.9735 20 41.2268 20 39.7333 20L24.2667 20C22.7732 20 22.0265 20 21.456 20.2906C20.9543 20.5463 20.5463 20.9543 20.2906 21.456C20 22.0265 20 22.7732 20 24.2667L20 25.0667C20 26.5601 20 27.3069 20.2906 27.8773C20.5463 28.3791 20.9543 28.787 21.456 29.0427C22.0265 29.3333 22.7732 29.3333 24.2667 29.3333L39.7333 29.3333Z" stroke="white" stroke-width="2" stroke-linecap="round" stroke-linejoin="round"/>
<rect opacity="0.5" x="0.5" y="0.5" width="63" height="63" rx="31.5" fill="#38BC64" fill-opacity="0.5" stroke="#38BC64"/>
</svg>
