<svg width="64" height="64" viewBox="0 0 64 64" fill="none" xmlns="http://www.w3.org/2000/svg">
<path opacity="0.4" d="M28 28L28 44" stroke="white" stroke-width="2" stroke-linecap="round" stroke-linejoin="round"/>
<path d="M20 28H44M26.4 20H37.6C39.8402 20 40.9603 20 41.816 20.436C42.5686 20.8195 43.1805 21.4314 43.564 22.184C44 23.0397 44 24.1598 44 26.4V37.6C44 39.8402 44 40.9603 43.564 41.816C43.1805 42.5686 42.5686 43.1805 41.816 43.564C40.9603 44 39.8402 44 37.6 44H26.4C24.1598 44 23.0397 44 22.184 43.564C21.4314 43.1805 20.8195 42.5686 20.436 41.816C20 40.9603 20 39.8402 20 37.6V26.4C20 24.1598 20 23.0397 20.436 22.184C20.8195 21.4314 21.4314 20.8195 22.184 20.436C23.0397 20 24.1598 20 26.4 20Z" stroke="white" stroke-width="2" stroke-linecap="round" stroke-linejoin="round"/>
<rect opacity="0.5" x="0.5" y="0.5" width="63" height="63" rx="31.5" fill="#38BC64" fill-opacity="0.5" stroke="#38BC64"/>
</svg>
