<svg width="52" height="52" viewBox="0 0 52 52" fill="none" xmlns="http://www.w3.org/2000/svg">
<rect opacity="0.2" x="0.5" y="0.5" width="51" height="51" rx="25.5" fill="#38BC64" fill-opacity="0.5" stroke="#38BC64"/>
<path opacity="0.4" d="M31 16C32.1625 16 32.7437 16 33.2206 16.1278C34.5147 16.4745 35.5255 17.4853 35.8722 18.7794C36 19.2563 36 19.8375 36 21V32.5C36 34.6002 36 35.6503 35.5913 36.4525C35.2317 37.1581 34.6581 37.7317 33.9525 38.0913C33.1503 38.5 32.1002 38.5 30 38.5H22C19.8998 38.5 18.8497 38.5 18.0475 38.0913C17.3419 37.7317 16.7683 37.1581 16.4087 36.4525C16 35.6503 16 34.6002 16 32.5V21C16 19.8375 16 19.2563 16.1278 18.7794C16.4745 17.4853 17.4853 16.4745 18.7794 16.1278C19.2563 16 19.8375 16 21 16" stroke="#38BC64" stroke-width="1.5" stroke-linecap="round" stroke-linejoin="round"/>
<path d="M22.25 29.75L24.75 32.25L30.375 26.625M23 18.5H29C29.7001 18.5 30.0501 18.5 30.3175 18.3638C30.5527 18.2439 30.7439 18.0527 30.8638 17.8175C31 17.5501 31 17.2001 31 16.5V15.5C31 14.7999 31 14.4499 30.8638 14.1825C30.7439 13.9473 30.5527 13.7561 30.3175 13.6362C30.0501 13.5 29.7001 13.5 29 13.5H23C22.2999 13.5 21.9499 13.5 21.6825 13.6362C21.4473 13.7561 21.2561 13.9473 21.1362 14.1825C21 14.4499 21 14.7999 21 15.5V16.5C21 17.2001 21 17.5501 21.1362 17.8175C21.2561 18.0527 21.4473 18.2439 21.6825 18.3638C21.9499 18.5 22.2999 18.5 23 18.5Z" stroke="#38BC64" stroke-width="1.5" stroke-linecap="round" stroke-linejoin="round"/>
</svg>
