<svg width="64" height="64" viewBox="0 0 64 64" fill="none" xmlns="http://www.w3.org/2000/svg">
<rect width="64" height="64" rx="32" fill="#F1F1F1"/>
<circle cx="32" cy="32" r="28" fill="#38BC64"/>
<path d="M31.7218 49.4331C31.2473 49.4331 30.776 49.3086 30.36 49.0691L26.0254 46.5029C25.378 46.1408 25.6939 46.0128 25.9075 45.939C26.7707 45.6367 26.9459 45.5685 27.8672 45.0452C27.9641 44.99 28.0908 45.0095 28.19 45.068L31.52 47.044C31.6402 47.109 31.8109 47.109 31.9223 47.044L44.9063 39.5494C45.0265 39.4811 45.1045 39.3414 45.1045 39.1984V24.2156C45.1045 24.0661 45.0265 23.9329 44.9037 23.8581L31.9249 16.37C31.8047 16.2985 31.6454 16.2985 31.5252 16.37L18.549 23.8581C18.4232 23.9296 18.3433 24.0694 18.3433 24.2124V39.1951C18.3433 39.3381 18.4213 39.4746 18.5448 39.5429L22.1003 41.5969C24.0309 42.5622 25.2107 41.4247 25.2107 40.2806V25.4929C25.2107 25.2816 25.3764 25.1191 25.5877 25.1191H27.2322C27.4369 25.1191 27.6059 25.2816 27.6059 25.4929V40.2871C27.6059 42.8612 26.2019 44.34 23.7611 44.34C23.0104 44.34 22.4189 44.34 20.7678 43.5274L17.3618 41.5644C16.52 41.0769 16 40.1669 16 39.1951V24.2124C16 23.2374 16.52 22.3274 17.3618 21.8463L30.3587 14.3485C31.181 13.8837 32.273 13.8837 33.0888 14.3485L46.0695 21.8496C46.908 22.3339 47.4313 23.2406 47.4313 24.2156V39.1984C47.4313 40.1701 46.908 41.0769 46.0695 41.5644L33.0888 49.0623C32.6728 49.3028 32.2015 49.4263 31.7205 49.4263" fill="white"/>
<path d="M35.7316 39.1096C30.0505 39.1096 28.8594 36.5017 28.8594 34.3145C28.8594 34.1065 29.0271 33.9407 29.2354 33.9407H30.9124C31.0977 33.9407 31.2537 34.0756 31.2829 34.2586C31.5364 35.9674 32.2905 36.8293 35.7258 36.8293C38.4623 36.8293 39.6258 36.2112 39.6258 34.76C39.6258 33.9248 39.2943 33.304 35.0433 32.888C31.4877 32.537 29.2907 31.7537 29.2907 28.9099C29.2907 26.2904 31.5007 24.7304 35.2025 24.7304C39.3593 24.7304 41.4199 26.1734 41.6799 29.2739C41.6896 29.3812 41.6506 29.4852 41.5791 29.5632C41.5076 29.638 41.4069 29.6835 41.3029 29.6835H39.6161C39.4406 29.6835 39.2878 29.56 39.2521 29.391C38.8458 27.5937 37.8643 27.0184 35.196 27.0184C32.2092 27.0184 31.8614 28.0584 31.8614 28.8384C31.8614 29.7842 32.271 30.0605 36.301 30.5935C40.2921 31.1232 42.1869 31.8707 42.1869 34.6755C42.1869 37.5031 39.8273 39.1249 35.7128 39.1249" fill="white"/>
</svg>
