<svg width="102" height="102" viewBox="0 0 102 102" fill="none" xmlns="http://www.w3.org/2000/svg">
<path opacity="0.4" d="M52.8312 49.1666L35.4145 66.5833M45.9653 43.4762L40.6947 41.7194C40.0877 41.517 39.4192 41.6458 38.9307 42.0591L33.6926 46.4913C32.6202 47.3987 32.9249 49.1255 34.243 49.6112L39.2062 51.4397M50.4131 62.6463L52.2417 67.6094C52.7273 68.9276 54.4541 69.2323 55.3615 68.1599L59.7938 62.9218C60.2071 62.4333 60.3358 61.7648 60.1335 61.1578L58.3766 55.8872" stroke="white" stroke-width="2" stroke-linecap="round" stroke-linejoin="round"/>
<path d="M54.6984 35.4873C56.9314 36.969 59.0778 38.7158 61.0834 40.7215C63.1064 42.7444 64.866 44.9105 66.3559 47.1643M64.4704 33.1631L55.4752 34.6623C54.5039 34.8242 53.613 35.3016 52.9403 36.0207L40.8163 48.9808C37.6737 52.3401 37.7611 57.5863 41.0139 60.8391C44.2667 64.0919 49.5129 64.1793 52.8723 61.0367L65.8324 48.9128C66.5515 48.2401 67.0289 47.3492 67.1907 46.3778L68.6899 37.3826C69.1036 34.901 66.9521 32.7495 64.4704 33.1631Z" stroke="white" stroke-width="2" stroke-linecap="round" stroke-linejoin="round"/>
<rect opacity="0.5" x="0.5" y="0.5" width="101" height="101" rx="50.5" fill="#38BC64" fill-opacity="0.5" stroke="#38BC64"/>
</svg>
