<svg width="88" height="24" viewBox="0 0 88 24" fill="none" xmlns="http://www.w3.org/2000/svg">
<path d="M8.80462 19.927C15.2773 19.927 16.5414 18.0528 16.5414 15.8952V15.7644C16.5414 13.4107 15.4081 12.1903 10.0033 12.0813L7.91109 12.0377C5.88428 11.9723 5.44841 11.6236 5.44841 11.1006V11.057C5.44841 10.4686 5.90607 10.1853 8.23799 10.1853H8.25978C10.875 10.1853 11.093 10.948 11.1583 11.3839H16.1055V11.2313C16.1055 9.40068 14.6889 7.54822 8.76104 7.54822H7.88929C1.43838 7.54822 0.47946 9.40068 0.47946 11.2096V11.3403C0.47946 13.062 1.6999 14.8927 6.79961 15.0016L8.8918 15.0452C11.1801 15.1106 11.4634 15.4593 11.4634 16.0695V16.1131C11.4634 16.6798 11.1365 17.2246 8.43413 17.2246H8.39055C5.55737 17.2246 5.38303 16.0695 5.38303 15.6337H0.370492V15.7644C0.370492 17.2682 1.06789 19.927 7.91109 19.927H8.80462ZM22.4321 13.6504C22.4321 12.1467 23.7397 10.6211 26.769 10.6211H26.878C30.0163 10.6211 30.888 12.1467 30.888 13.6504V13.7376C30.888 15.1542 30.0163 16.7887 26.878 16.7887H26.769C23.8051 16.7887 22.4321 15.1978 22.4321 13.7376V13.6504ZM17.5721 7.87513V23.6973H22.4321V17.9438C22.8244 18.3797 24.7858 19.8834 28.2728 19.8834H28.6215C34.0263 19.8834 35.857 16.9631 35.857 13.8902V13.4761C35.857 10.2506 34.0917 7.59181 28.7741 7.59181H28.3818C24.8294 7.59181 22.9552 9.09557 22.4321 9.55324V7.87513H17.5721Z" fill="white"/>
<path d="M72.0981 19.6001V16.3746H70.7687C69.9187 16.3746 69.7879 15.9824 69.7879 15.3503V11.1006H72.0981V7.87513H69.7879V4.45353H64.9933V7.87513H62.705V11.1006H64.9933V16.2657C64.9933 18.2925 65.7779 19.6001 67.8919 19.6001H72.0981ZM78.1705 13.5415C78.1705 12.0377 79.064 10.7083 80.6985 10.7083H80.7203C82.551 10.7083 83.2048 12.0159 83.2048 13.5197H87.8904V12.8441C87.8904 9.81476 86.5174 7.6136 83.1176 7.6136H82.8779C79.9576 7.6136 78.541 9.29171 78.1269 9.94552V7.87513H73.3105V19.6001H78.1705V13.5415Z" fill="white"/>
<path d="M57.6719 12.8C58.2212 13.1637 58.9904 14.3273 57.6719 16.0728C58.5171 15.491 59.7003 14.0219 57.6719 12.8Z" fill="white" stroke="white" stroke-width="0.218182" stroke-linejoin="round"/>
<path d="M41.2563 12.8C40.707 13.1637 39.9379 14.3273 41.2563 16.0728C40.4112 15.491 39.2279 14.0219 41.2563 12.8Z" fill="white" stroke="white" stroke-width="0.218182" stroke-linejoin="round"/>
<circle cx="42.7636" cy="14.0371" r="5.16364" stroke="white" stroke-width="3.2"/>
<circle cx="56.2917" cy="14.0371" r="5.16364" stroke="white" stroke-width="3.2"/>
<path d="M40.8001 8H59.2001V11.2L56.4001 9.6L52.8001 11.2H45.2001L42.8001 9.2L39.6001 11.2L40.8001 8Z" fill="white"/>
</svg>
