<svg width="64" height="64" viewBox="0 0 64 64" fill="none" xmlns="http://www.w3.org/2000/svg">
<rect width="64" height="64" rx="32" fill="#F1F1F1"/>
<circle cx="32" cy="32" r="28" fill="#38BC64"/>
<path d="M31.6862 34.5912C33.1871 34.5912 34.4037 33.3746 34.4037 31.8737C34.4037 30.3729 33.1871 29.1562 31.6862 29.1562C30.1854 29.1562 28.9688 30.3729 28.9688 31.8737C28.9688 33.3746 30.1854 34.5912 31.6862 34.5912Z" fill="white"/>
<path d="M31.691 37.4398C39.7442 37.4398 46.2727 34.9471 46.2727 31.8722C46.2727 28.7974 39.7442 26.3047 31.691 26.3047C23.6378 26.3047 17.1094 28.7974 17.1094 31.8722C17.1094 34.9471 23.6378 37.4398 31.691 37.4398Z" stroke="white" stroke-width="1.5"/>
<path d="M26.8663 34.6565C30.8929 41.6308 36.3159 46.0383 38.9788 44.5009C41.6417 42.9634 40.5362 36.0633 36.5096 29.089C32.483 22.1147 27.06 17.7073 24.3971 19.2447C21.7342 20.7821 22.8397 27.6823 26.8663 34.6565Z" stroke="white" stroke-width="1.5"/>
<path d="M26.8706 29.0898C22.844 36.0641 21.7385 42.9642 24.4014 44.5017C27.0643 46.0391 32.4873 41.6317 36.5139 34.6574C40.5405 27.6831 41.646 20.783 38.9831 19.2455C36.3201 17.7081 30.8972 22.1155 26.8706 29.0898Z" stroke="white" stroke-width="1.5"/>
</svg>
