<svg width="102" height="102" viewBox="0 0 102 102" fill="none" xmlns="http://www.w3.org/2000/svg">
<rect opacity="0.5" x="0.5" y="0.5" width="101" height="101" rx="50.5" fill="#38BC64" fill-opacity="0.5" stroke="#38BC64"/>
<path opacity="0.4" d="M32.667 60.1667V59.8913C32.667 59.3111 32.667 59.021 32.7114 58.7383C32.7508 58.4874 32.8162 58.2412 32.9065 58.0037C33.0082 57.7363 33.1521 57.4844 33.44 56.9806L40.0003 45.5M40.0003 45.5L46.5607 56.9806C46.8486 57.4844 46.9925 57.7363 47.0942 58.0037C47.1845 58.2412 47.2499 58.4874 47.2893 58.7383C47.3337 59.021 47.3337 59.3111 47.3337 59.8913V60.1667M40.0003 45.5L51.0003 43.6667M54.667 56.5V56.2246C54.667 55.6444 54.667 55.3543 54.7114 55.0716C54.7508 54.8207 54.8162 54.5745 54.9065 54.3371C55.0082 54.0696 55.1521 53.8177 55.44 53.314L62.0003 41.8333M62.0003 41.8333L68.5607 53.314C68.8486 53.8177 68.9925 54.0696 69.0942 54.3371C69.1845 54.5745 69.2499 54.8207 69.2893 55.0716C69.3337 55.3543 69.3337 55.6444 69.3337 56.2246V56.5M62.0003 41.8333L51.0003 43.6667M51.0003 34.5V43.6667" stroke="white" stroke-width="2" stroke-linecap="round" stroke-linejoin="round"/>
<path d="M40.0003 67.5001C44.0504 67.5001 47.3337 64.2168 47.3337 60.1667V59.8001C47.3337 59.2867 47.3337 59.03 47.2337 58.8339C47.1459 58.6614 47.0056 58.5212 46.8331 58.4333C46.6371 58.3334 46.3804 58.3334 45.867 58.3334H34.1337C33.6203 58.3334 33.3636 58.3334 33.1675 58.4333C32.995 58.5212 32.8548 58.6614 32.7669 58.8339C32.667 59.03 32.667 59.2867 32.667 59.8001V60.1667C32.667 64.2168 35.9502 67.5001 40.0003 67.5001Z" stroke="white" stroke-width="2" stroke-linecap="round" stroke-linejoin="round"/>
<path d="M62.0003 63.8334C66.0504 63.8334 69.3337 60.5502 69.3337 56.5001V56.1334C69.3337 55.62 69.3337 55.3633 69.2337 55.1673C69.1459 54.9948 69.0056 54.8545 68.8331 54.7667C68.6371 54.6667 68.3804 54.6667 67.867 54.6667H56.1337C55.6203 54.6667 55.3636 54.6667 55.1675 54.7667C54.995 54.8545 54.8548 54.9948 54.7669 55.1673C54.667 55.3633 54.667 55.62 54.667 56.1334V56.5001C54.667 60.5502 57.9502 63.8334 62.0003 63.8334Z" stroke="white" stroke-width="2" stroke-linecap="round" stroke-linejoin="round"/>
</svg>
