<svg width="52" height="52" viewBox="0 0 52 52" fill="none" xmlns="http://www.w3.org/2000/svg">
<rect opacity="0.2" x="0.5" y="0.5" width="51" height="51" rx="25.5" fill="#38BC64" fill-opacity="0.5" stroke="#38BC64"/>
<path opacity="0.4" d="M25.3749 17.25H25.9179C29.727 17.25 31.6315 17.25 32.3545 17.9341C32.9794 18.5255 33.2564 19.3966 33.0876 20.2403C32.8925 21.2163 31.3376 22.3161 28.2278 24.5157L23.1471 28.1093C20.0373 30.3089 18.4824 31.4087 18.2872 32.3847C18.1185 33.2284 18.3955 34.0995 19.0204 34.6909C19.7434 35.375 21.6479 35.375 25.4569 35.375H26.6249" stroke="#38BC64" stroke-width="1.5" stroke-linecap="round" stroke-linejoin="round"/>
<path d="M17.25 21C19.3211 21 21 19.3211 21 17.25C21 15.1789 19.3211 13.5 17.25 13.5C15.1789 13.5 13.5 15.1789 13.5 17.25C13.5 19.3211 15.1789 21 17.25 21Z" stroke="#38BC64" stroke-width="1.5" stroke-linecap="round" stroke-linejoin="round"/>
<path d="M34.75 38.5C36.8211 38.5 38.5 36.8211 38.5 34.75C38.5 32.6789 36.8211 31 34.75 31C32.6789 31 31 32.6789 31 34.75C31 36.8211 32.6789 38.5 34.75 38.5Z" stroke="#38BC64" stroke-width="1.5" stroke-linecap="round" stroke-linejoin="round"/>
</svg>
