<svg width="320" height="190" viewBox="0 0 320 190" fill="none" xmlns="http://www.w3.org/2000/svg">
<path d="M2.73981 185.13L2.29551 186.45H3.6875H52.7599H53.5153L53.7218 185.723L64.9374 146.276H123.182L134.433 185.724L134.64 186.45H135.395H184.467H185.859L185.415 185.13L123.63 1.68082L123.4 1H122.682H109.443H108.443H94.4588H93.4588H65.473H64.7546L64.5253 1.68082L2.73981 185.13ZM113.003 110.587H75.0848L94.0147 44.0078L113.003 110.587ZM270.933 93.407V99.3435L240.341 101.308L240.338 101.308C222.432 102.502 208.446 106.772 198.488 114.218C188.551 121.629 183.594 132.066 183.594 145.403V145.531C183.594 153.751 185.587 161.139 189.59 167.666L189.594 167.672L189.598 167.679C193.683 174.11 199.329 179.185 206.509 182.905L206.518 182.909C213.715 186.551 222.01 188.357 231.379 188.357C237.49 188.357 243.109 187.496 248.227 185.761C253.337 184.029 257.895 181.513 261.891 178.211C265.414 175.301 268.428 171.885 270.933 167.967V185.45V186.45H271.933H317.065H318.065V185.45V90.8643C318.065 81.3453 315.421 72.9568 310.118 65.7394C304.909 58.5347 297.548 52.9642 288.086 49.007C278.7 45.0457 267.756 43.0803 255.279 43.0803C242.301 43.0803 231.064 45.0009 221.592 48.8756L221.589 48.8768C212.216 52.7465 204.858 58.1425 199.563 65.0861C194.27 72.0282 191.241 80.137 190.463 89.3821L190.462 89.3892L190.335 91.0419L190.253 92.1186H191.332H232.014H232.834L232.995 91.3147L233.246 90.0568C233.247 90.0547 233.247 90.0525 233.248 90.0503C233.95 86.7797 235.898 83.975 239.202 81.6374C242.45 79.3407 247.009 78.1342 252.991 78.1342C259.03 78.1342 263.453 79.5821 266.425 82.3194L266.43 82.3242L266.435 82.329C269.41 84.9904 270.933 88.6417 270.933 93.407ZM270.933 127.646V135.869C270.933 139.476 269.896 142.75 267.81 145.718L267.806 145.723C265.798 148.615 263.018 150.922 259.43 152.635C255.942 154.256 251.855 155.082 247.143 155.082C241.772 155.082 237.541 153.968 234.365 151.829C231.348 149.658 229.836 146.625 229.836 142.607V142.479C229.836 138.619 231.274 135.609 234.157 133.35L234.163 133.345L234.17 133.34C237.073 130.986 241.535 129.573 247.705 129.239L247.712 129.239L247.72 129.238L270.933 127.646Z" stroke="#38BC64" stroke-width="2"/>
</svg>
