<svg width="66" height="66" viewBox="0 0 66 66" fill="none" xmlns="http://www.w3.org/2000/svg">
<circle cx="33" cy="33" r="33" fill="#38BC64"/>
<path opacity="0.4" d="M31.3334 20.5H43.5001C45.3669 20.5 46.3003 20.5 47.0134 20.8633C47.6406 21.1829 48.1505 21.6928 48.4701 22.32C48.8334 23.0331 48.8334 23.9665 48.8334 25.8333V28C48.8334 29.5531 48.8334 30.3297 48.5797 30.9423C48.2414 31.759 47.5925 32.408 46.7757 32.7463C46.1631 33 45.3866 33 43.8334 33M34.6667 45.5H22.5001C20.6332 45.5 19.6998 45.5 18.9868 45.1367C18.3596 44.8171 17.8496 44.3072 17.5301 43.68C17.1667 42.9669 17.1667 42.0335 17.1667 40.1667V38C17.1667 36.4469 17.1667 35.6703 17.4205 35.0577C17.7588 34.241 18.4077 33.592 19.2245 33.2537C19.837 33 20.6136 33 22.1667 33" stroke="white" stroke-width="2" stroke-linecap="round" stroke-linejoin="round"/>
<path d="M28.8333 30.1666C28.8333 29.6999 28.8333 29.4666 28.9241 29.2883C29.004 29.1315 29.1315 29.004 29.2883 28.9241C29.4665 28.8333 29.6999 28.8333 30.1666 28.8333H35.8333C36.3 28.8333 36.5333 28.8333 36.7116 28.9241C36.8684 29.004 36.9959 29.1315 37.0758 29.2883C37.1666 29.4666 37.1666 29.6999 37.1666 30.1666V35.8333C37.1666 36.3 37.1666 36.5334 37.0758 36.7116C36.9959 36.8684 36.8684 36.9959 36.7116 37.0758C36.5333 37.1666 36.3 37.1666 35.8333 37.1666H30.1666C29.6999 37.1666 29.4665 37.1666 29.2883 37.0758C29.1315 36.9959 29.004 36.8684 28.9241 36.7116C28.8333 36.5334 28.8333 36.3 28.8333 35.8333V30.1666Z" stroke="white" stroke-width="2" stroke-linecap="round" stroke-linejoin="round"/>
<path d="M41.3333 42.6666C41.3333 42.1999 41.3333 41.9666 41.4241 41.7883C41.504 41.6315 41.6315 41.504 41.7883 41.4241C41.9665 41.3333 42.1999 41.3333 42.6666 41.3333H48.3333C48.8 41.3333 49.0333 41.3333 49.2116 41.4241C49.3684 41.504 49.4959 41.6315 49.5758 41.7883C49.6666 41.9666 49.6666 42.1999 49.6666 42.6666V48.3333C49.6666 48.8 49.6666 49.0334 49.5758 49.2116C49.4959 49.3684 49.3684 49.4959 49.2116 49.5758C49.0333 49.6666 48.8 49.6666 48.3333 49.6666H42.6666C42.1999 49.6666 41.9665 49.6666 41.7883 49.5758C41.6315 49.4959 41.504 49.3684 41.4241 49.2116C41.3333 49.0334 41.3333 48.8 41.3333 48.3333V42.6666Z" stroke="white" stroke-width="2" stroke-linecap="round" stroke-linejoin="round"/>
<path d="M16.3333 17.6666C16.3333 17.1999 16.3333 16.9666 16.4241 16.7883C16.504 16.6315 16.6315 16.504 16.7883 16.4241C16.9665 16.3333 17.1999 16.3333 17.6666 16.3333H23.3333C23.8 16.3333 24.0333 16.3333 24.2116 16.4241C24.3684 16.504 24.4959 16.6315 24.5758 16.7883C24.6666 16.9666 24.6666 17.1999 24.6666 17.6666V23.3333C24.6666 23.8 24.6666 24.0334 24.5758 24.2116C24.4959 24.3684 24.3684 24.4959 24.2116 24.5758C24.0333 24.6666 23.8 24.6666 23.3333 24.6666H17.6666C17.1999 24.6666 16.9665 24.6666 16.7883 24.5758C16.6315 24.4959 16.504 24.3684 16.4241 24.2116C16.3333 24.0334 16.3333 23.8 16.3333 23.3333V17.6666Z" stroke="white" stroke-width="2" stroke-linecap="round" stroke-linejoin="round"/>
</svg>
