<svg width="66" height="66" viewBox="0 0 66 66" fill="none" xmlns="http://www.w3.org/2000/svg">
<circle cx="33" cy="33" r="33" fill="#38BC64"/>
<path opacity="0.4" d="M31.3332 20.5H43.4998C45.3667 20.5 46.3001 20.5 47.0131 20.8633C47.6403 21.1829 48.1503 21.6928 48.4699 22.32C48.8332 23.0331 48.8332 23.9665 48.8332 25.8333V28C48.8332 29.5531 48.8332 30.3297 48.5794 30.9423C48.2411 31.759 47.5922 32.408 46.7754 32.7463C46.1629 33 45.3863 33 43.8332 33M34.6665 45.5H22.4998C20.633 45.5 19.6996 45.5 18.9865 45.1367C18.3593 44.8171 17.8494 44.3072 17.5298 43.68C17.1665 42.9669 17.1665 42.0335 17.1665 40.1667V38C17.1665 36.4469 17.1665 35.6703 17.4202 35.0577C17.7586 34.241 18.4075 33.592 19.2242 33.2537C19.8368 33 20.6134 33 22.1665 33" stroke="white" stroke-width="2" stroke-linecap="round" stroke-linejoin="round"/>
<path d="M28.8335 30.1666C28.8335 29.6999 28.8335 29.4666 28.9243 29.2883C29.0042 29.1315 29.1317 29.004 29.2885 28.9241C29.4668 28.8333 29.7001 28.8333 30.1668 28.8333H35.8335C36.3002 28.8333 36.5336 28.8333 36.7118 28.9241C36.8686 29.004 36.9961 29.1315 37.076 29.2883C37.1668 29.4666 37.1668 29.6999 37.1668 30.1666V35.8333C37.1668 36.3 37.1668 36.5334 37.076 36.7116C36.9961 36.8684 36.8686 36.9959 36.7118 37.0758C36.5336 37.1666 36.3002 37.1666 35.8335 37.1666H30.1668C29.7001 37.1666 29.4668 37.1666 29.2885 37.0758C29.1317 36.9959 29.0042 36.8684 28.9243 36.7116C28.8335 36.5334 28.8335 36.3 28.8335 35.8333V30.1666Z" stroke="white" stroke-width="2" stroke-linecap="round" stroke-linejoin="round"/>
<path d="M41.3335 42.6666C41.3335 42.1999 41.3335 41.9666 41.4243 41.7883C41.5042 41.6315 41.6317 41.504 41.7885 41.4241C41.9668 41.3333 42.2001 41.3333 42.6668 41.3333H48.3335C48.8002 41.3333 49.0336 41.3333 49.2118 41.4241C49.3686 41.504 49.4961 41.6315 49.576 41.7883C49.6668 41.9666 49.6668 42.1999 49.6668 42.6666V48.3333C49.6668 48.8 49.6668 49.0334 49.576 49.2116C49.4961 49.3684 49.3686 49.4959 49.2118 49.5758C49.0336 49.6666 48.8002 49.6666 48.3335 49.6666H42.6668C42.2001 49.6666 41.9668 49.6666 41.7885 49.5758C41.6317 49.4959 41.5042 49.3684 41.4243 49.2116C41.3335 49.0334 41.3335 48.8 41.3335 48.3333V42.6666Z" stroke="white" stroke-width="2" stroke-linecap="round" stroke-linejoin="round"/>
<path d="M16.3335 17.6666C16.3335 17.1999 16.3335 16.9666 16.4243 16.7883C16.5042 16.6315 16.6317 16.504 16.7885 16.4241C16.9668 16.3333 17.2001 16.3333 17.6668 16.3333H23.3335C23.8002 16.3333 24.0336 16.3333 24.2118 16.4241C24.3686 16.504 24.4961 16.6315 24.576 16.7883C24.6668 16.9666 24.6668 17.1999 24.6668 17.6666V23.3333C24.6668 23.8 24.6668 24.0334 24.576 24.2116C24.4961 24.3684 24.3686 24.4959 24.2118 24.5758C24.0336 24.6666 23.8002 24.6666 23.3335 24.6666H17.6668C17.2001 24.6666 16.9668 24.6666 16.7885 24.5758C16.6317 24.4959 16.5042 24.3684 16.4243 24.2116C16.3335 24.0334 16.3335 23.8 16.3335 23.3333V17.6666Z" stroke="white" stroke-width="2" stroke-linecap="round" stroke-linejoin="round"/>
</svg>
