<svg width="66" height="66" viewBox="0 0 66 66" fill="none" xmlns="http://www.w3.org/2000/svg">
<circle cx="33" cy="33" r="33" fill="#38BC64"/>
<path opacity="0.4" d="M32.9999 49.6667C42.2047 49.6667 49.6666 42.2048 49.6666 33C49.6666 23.7953 42.2047 16.3333 32.9999 16.3333C23.7952 16.3333 16.3333 23.7953 16.3333 33C16.3333 42.2048 23.7952 49.6667 32.9999 49.6667Z" stroke="#F8F7F2" stroke-width="2" stroke-linecap="round" stroke-linejoin="round"/>
<path d="M26.3334 36.3333C26.3334 36.3333 28.8334 39.6667 33.0001 39.6667C37.1667 39.6667 39.6667 36.3333 39.6667 36.3333M41.3334 28.4C40.6751 29.2083 39.7751 29.6667 38.8334 29.6667C37.8917 29.6667 37.0167 29.2083 36.3334 28.4M29.6667 28.4C29.0084 29.2083 28.1084 29.6667 27.1667 29.6667C26.2251 29.6667 25.3501 29.2083 24.6667 28.4" stroke="#F8F7F2" stroke-width="2" stroke-linecap="round" stroke-linejoin="round"/>
</svg>
