<svg width="66" height="66" viewBox="0 0 66 66" fill="none" xmlns="http://www.w3.org/2000/svg">
<circle cx="33" cy="33" r="33" fill="#38BC64"/>
<path opacity="0.12" d="M34.6671 16.3334L19.8228 34.1465C19.2415 34.8441 18.9508 35.1929 18.9464 35.4875C18.9425 35.7436 19.0566 35.9872 19.2558 36.1482C19.485 36.3334 19.939 36.3334 20.8471 36.3334H33.0004L31.3338 49.6667L46.178 31.8536C46.7593 31.156 47.05 30.8072 47.0545 30.5126C47.0583 30.2565 46.9442 30.0129 46.745 29.8519C46.5158 29.6667 46.0618 29.6667 45.1537 29.6667H33.0004L34.6671 16.3334Z" fill="white"/>
<path d="M34.6666 16.3334L19.8224 34.1465C19.241 34.8441 18.9503 35.1929 18.9459 35.4875C18.942 35.7436 19.0562 35.9872 19.2554 36.1482C19.4845 36.3334 19.9386 36.3334 20.8467 36.3334H32.9999L31.3333 49.6667L46.1775 31.8536C46.7589 31.156 47.0495 30.8072 47.054 30.5126C47.0578 30.2565 46.9437 30.0129 46.7445 29.8519C46.5154 29.6667 46.0613 29.6667 45.1532 29.6667H32.9999L34.6666 16.3334Z" stroke="white" stroke-width="2" stroke-linecap="round" stroke-linejoin="round"/>
</svg>
