<svg width="66" height="66" viewBox="0 0 66 66" fill="none" xmlns="http://www.w3.org/2000/svg">
<circle cx="33" cy="33" r="33" fill="#38BC64"/>
<path opacity="0.4" d="M44.6666 24.6666V41.3333M21.3333 24.6666V41.3333M41.3333 21.3333L24.6666 21.3333M41.3333 44.6666L24.6666 44.6666" stroke="white" stroke-width="2" stroke-linecap="round" stroke-linejoin="round"/>
<path d="M18 20.6667C18 19.7332 18 19.2665 18.1817 18.91C18.3414 18.5964 18.5964 18.3414 18.91 18.1817C19.2665 18 19.7332 18 20.6667 18H22C22.9334 18 23.4001 18 23.7567 18.1817C24.0703 18.3414 24.3252 18.5964 24.485 18.91C24.6667 19.2665 24.6667 19.7332 24.6667 20.6667V22C24.6667 22.9334 24.6667 23.4001 24.485 23.7567C24.3252 24.0703 24.0703 24.3252 23.7567 24.485C23.4001 24.6667 22.9334 24.6667 22 24.6667H20.6667C19.7332 24.6667 19.2665 24.6667 18.91 24.485C18.5964 24.3252 18.3414 24.0703 18.1817 23.7567C18 23.4001 18 22.9334 18 22V20.6667Z" stroke="white" stroke-width="2" stroke-linecap="round" stroke-linejoin="round"/>
<path d="M18 44C18 43.0666 18 42.5999 18.1817 42.2433C18.3414 41.9297 18.5964 41.6748 18.91 41.515C19.2665 41.3333 19.7332 41.3333 20.6667 41.3333H22C22.9334 41.3333 23.4001 41.3333 23.7567 41.515C24.0703 41.6748 24.3252 41.9297 24.485 42.2433C24.6667 42.5999 24.6667 43.0666 24.6667 44V45.3333C24.6667 46.2668 24.6667 46.7335 24.485 47.09C24.3252 47.4036 24.0703 47.6586 23.7567 47.8183C23.4001 48 22.9334 48 22 48H20.6667C19.7332 48 19.2665 48 18.91 47.8183C18.5964 47.6586 18.3414 47.4036 18.1817 47.09C18 46.7335 18 46.2668 18 45.3333V44Z" stroke="white" stroke-width="2" stroke-linecap="round" stroke-linejoin="round"/>
<path d="M41.3333 20.6667C41.3333 19.7332 41.3333 19.2665 41.515 18.91C41.6748 18.5964 41.9297 18.3414 42.2433 18.1817C42.5999 18 43.0666 18 44 18H45.3333C46.2668 18 46.7335 18 47.09 18.1817C47.4036 18.3414 47.6586 18.5964 47.8183 18.91C48 19.2665 48 19.7332 48 20.6667V22C48 22.9334 48 23.4001 47.8183 23.7567C47.6586 24.0703 47.4036 24.3252 47.09 24.485C46.7335 24.6667 46.2668 24.6667 45.3333 24.6667H44C43.0666 24.6667 42.5999 24.6667 42.2433 24.485C41.9297 24.3252 41.6748 24.0703 41.515 23.7567C41.3333 23.4001 41.3333 22.9334 41.3333 22V20.6667Z" stroke="white" stroke-width="2" stroke-linecap="round" stroke-linejoin="round"/>
<path d="M41.3333 44C41.3333 43.0666 41.3333 42.5999 41.515 42.2433C41.6748 41.9297 41.9297 41.6748 42.2433 41.515C42.5999 41.3333 43.0666 41.3333 44 41.3333H45.3333C46.2668 41.3333 46.7335 41.3333 47.09 41.515C47.4036 41.6748 47.6586 41.9297 47.8183 42.2433C48 42.5999 48 43.0666 48 44V45.3333C48 46.2668 48 46.7335 47.8183 47.09C47.6586 47.4036 47.4036 47.6586 47.09 47.8183C46.7335 48 46.2668 48 45.3333 48H44C43.0666 48 42.5999 48 42.2433 47.8183C41.9297 47.6586 41.6748 47.4036 41.515 47.09C41.3333 46.7335 41.3333 46.2668 41.3333 45.3333V44Z" stroke="white" stroke-width="2" stroke-linecap="round" stroke-linejoin="round"/>
</svg>
