<svg width="66" height="66" viewBox="0 0 66 66" fill="none" xmlns="http://www.w3.org/2000/svg">
<circle cx="33" cy="33" r="33" fill="#38BC64"/>
<path opacity="0.4" d="M31.3333 19.6667H26C23.1997 19.6667 21.7996 19.6667 20.73 20.2116C19.7892 20.691 19.0243 21.4559 18.545 22.3967C18 23.4663 18 24.8664 18 27.6667V36.3333C18 37.8833 18 38.6583 18.1704 39.2941C18.6327 41.0195 19.9804 42.3673 21.7059 42.8296C22.3417 43 23.1167 43 24.6667 43V46.8925C24.6667 47.7806 24.6667 48.2246 24.8487 48.4527C25.007 48.651 25.2471 48.7664 25.5009 48.7661C25.7927 48.7658 26.1395 48.4884 26.8329 47.9336L30.8087 44.753C31.6209 44.1033 32.0269 43.7784 32.4791 43.5474C32.8803 43.3424 33.3074 43.1926 33.7487 43.1021C34.2461 43 34.7662 43 35.8062 43H38.3333C41.1336 43 42.5337 43 43.6033 42.455C44.5441 41.9757 45.309 41.2108 45.7884 40.2699C46.3333 39.2004 46.3333 37.8003 46.3333 35V34.6667" stroke="white" stroke-width="2" stroke-linecap="round" stroke-linejoin="round"/>
<path d="M46.5355 19.4645C48.4882 21.4171 48.4882 24.5829 46.5355 26.5355C44.5829 28.4882 41.4171 28.4882 39.4645 26.5355C37.5118 24.5829 37.5118 21.4171 39.4645 19.4645C41.4171 17.5118 44.5829 17.5118 46.5355 19.4645Z" stroke="white" stroke-width="2" stroke-linecap="round" stroke-linejoin="round"/>
</svg>
