<svg width="66" height="66" viewBox="0 0 66 66" fill="none" xmlns="http://www.w3.org/2000/svg">
<circle cx="33" cy="33" r="33" fill="#38BC64"/>
<path opacity="0.4" d="M42.7964 46.4836C39.949 48.5524 36.5197 49.6666 33 49.6666C29.4804 49.6666 26.0511 48.5524 23.2036 46.4836M40.3062 18.0201C43.4696 19.563 46.0634 22.0678 47.7158 25.1754C49.3682 28.2831 49.9943 31.8341 49.5045 35.3195M16.4957 35.3194C16.0059 31.834 16.632 28.2829 18.2844 25.1753C19.9368 22.0676 22.5306 19.5628 25.694 18.0199" stroke="white" stroke-width="2" stroke-linecap="round" stroke-linejoin="round"/>
<path d="M33.0002 42.1667C38.0628 42.1667 42.1668 38.0627 42.1668 33C42.1668 27.9374 38.0628 23.8334 33.0002 23.8334C27.9376 23.8334 23.8335 27.9374 23.8335 33C23.8335 38.0627 27.9376 42.1667 33.0002 42.1667Z" stroke="white" stroke-width="2" stroke-linecap="round" stroke-linejoin="round"/>
</svg>
