<svg width="66" height="66" viewBox="0 0 66 66" fill="none" xmlns="http://www.w3.org/2000/svg">
<circle cx="33" cy="33" r="33" fill="#38BC64"/>
<path opacity="0.4" d="M19.666 43V42.6667C19.666 39.8664 19.666 38.4663 20.211 37.3968C20.6903 36.4559 21.4553 35.691 22.3961 35.2117C23.4656 34.6667 24.8658 34.6667 27.666 34.6667H38.3327C41.1329 34.6667 42.5331 34.6667 43.6026 35.2117C44.5434 35.691 45.3083 36.4559 45.7877 37.3968C46.3327 38.4663 46.3327 39.8664 46.3327 42.6667V43M32.9993 43V26.3334" stroke="white" stroke-width="2" stroke-linecap="round" stroke-linejoin="round"/>
<path d="M19.6673 49.6667C21.5083 49.6667 23.0007 48.1743 23.0007 46.3334C23.0007 44.4924 21.5083 43 19.6673 43C17.8264 43 16.334 44.4924 16.334 46.3334C16.334 48.1743 17.8264 49.6667 19.6673 49.6667Z" stroke="white" stroke-width="2" stroke-linecap="round" stroke-linejoin="round"/>
<path d="M46.334 49.6667C48.1749 49.6667 49.6673 48.1743 49.6673 46.3334C49.6673 44.4924 48.1749 43 46.334 43C44.493 43 43.0007 44.4924 43.0007 46.3334C43.0007 48.1743 44.493 49.6667 46.334 49.6667Z" stroke="white" stroke-width="2" stroke-linecap="round" stroke-linejoin="round"/>
<path d="M33.0007 49.6667C34.8416 49.6667 36.334 48.1743 36.334 46.3334C36.334 44.4924 34.8416 43 33.0007 43C31.1597 43 29.6673 44.4924 29.6673 46.3334C29.6673 48.1743 31.1597 49.6667 33.0007 49.6667Z" stroke="white" stroke-width="2" stroke-linecap="round" stroke-linejoin="round"/>
<path d="M18.0007 21.3334C18.0007 19.7802 18.0007 19.0037 18.2544 18.3911C18.5927 17.5743 19.2416 16.9254 20.0584 16.5871C20.6709 16.3334 21.4475 16.3334 23.0007 16.3334H43.0007C44.5538 16.3334 45.3304 16.3334 45.9429 16.5871C46.7597 16.9254 47.4086 17.5743 47.7469 18.3911C48.0007 19.0037 48.0007 19.7802 48.0007 21.3334C48.0007 22.8865 48.0007 23.6631 47.7469 24.2757C47.4086 25.0924 46.7597 25.7413 45.9429 26.0796C45.3304 26.3334 44.5538 26.3334 43.0007 26.3334H23.0007C21.4475 26.3334 20.6709 26.3334 20.0584 26.0796C19.2416 25.7413 18.5927 25.0924 18.2544 24.2757C18.0007 23.6631 18.0007 22.8865 18.0007 21.3334Z" stroke="white" stroke-width="2" stroke-linecap="round" stroke-linejoin="round"/>
</svg>
