<svg width="66" height="66" viewBox="0 0 66 66" fill="none" xmlns="http://www.w3.org/2000/svg">
<circle cx="33" cy="33" r="33" fill="#38BC64"/>
<path opacity="0.4" d="M34.666 44.6666H41.823C44.9316 44.6666 46.486 44.6666 47.3685 44.0153C48.1379 43.4474 48.6264 42.5764 48.7098 41.6238C48.8053 40.5311 47.9948 39.2048 46.3738 36.5522L44.7123 33.8333M23.2162 30.6753L19.6248 36.5522C18.0037 39.2048 17.1932 40.5311 17.2888 41.6238C17.3722 42.5764 17.8606 43.4474 18.6301 44.0153C19.5126 44.6666 21.0669 44.6666 24.1756 44.6666H27.166M41.1474 27.9999L37.5501 22.1134C36.0455 19.6513 35.2931 18.4202 34.3246 18.0005C33.4791 17.6341 32.5195 17.6341 31.674 18.0005C30.7054 18.4202 29.9531 19.6513 28.4485 22.1134L26.7487 24.8948" stroke="white" stroke-width="2" stroke-linecap="round" stroke-linejoin="round"/>
<path d="M43.0007 21.3335L41.1705 28.1636L34.3404 26.3335M16.334 32.3302L23.1641 30.5L24.9942 37.3302M38.834 49.6667L33.834 44.6667L38.834 39.6667" stroke="white" stroke-width="2" stroke-linecap="round" stroke-linejoin="round"/>
</svg>
