<svg width="119" height="119" viewBox="0 0 119 119" fill="none" xmlns="http://www.w3.org/2000/svg">
<line x1="18.3536" y1="16.6464" x2="102.354" y2="100.646" stroke="#DCDCDC"/>
<line x1="17.6464" y1="100.646" x2="100.646" y2="17.6464" stroke="#DCDCDC"/>
<path d="M43.0246 57.0893C41.8819 56.6449 41.3105 56.4227 41.1437 56.1026C40.9991 55.825 40.999 55.4944 41.1432 55.2167C41.3096 54.8963 41.8807 54.6735 43.0229 54.2278L75.4365 41.5786C76.4675 41.1762 76.983 40.975 77.3124 41.0851C77.5985 41.1806 77.823 41.4052 77.9186 41.6912C78.0286 42.0206 77.8275 42.5362 77.4251 43.5672L64.7759 75.9808C64.3302 77.1229 64.1073 77.694 63.787 77.8604C63.5093 78.0047 63.1787 78.0045 62.9011 77.8599C62.581 77.6931 62.3588 77.1218 61.9144 75.9791L56.8701 63.0081C56.7799 62.7761 56.7348 62.6602 56.6652 62.5625C56.6034 62.476 56.5277 62.4003 56.4412 62.3385C56.3435 62.2689 56.2275 62.2237 55.9956 62.1335L43.0246 57.0893Z" stroke="#F3356A" stroke-width="3" stroke-linecap="round" stroke-linejoin="round"/>
<circle cx="59.5" cy="59.5" r="35" stroke="#DCDCDC"/>
<rect x="0.5" y="0.5" width="118" height="118" rx="59" stroke="#B2C1BC"/>
</svg>
