<svg width="119" height="119" viewBox="0 0 119 119" fill="none" xmlns="http://www.w3.org/2000/svg">
<line x1="18.3536" y1="16.6464" x2="102.354" y2="100.646" stroke="#DCDCDC"/>
<line x1="17.6464" y1="100.646" x2="100.646" y2="17.6464" stroke="#DCDCDC"/>
<path opacity="0.4" d="M51.8242 51.8216V49.9023M51.8242 60.4587V58.5394M51.8242 69.0958V67.1765" stroke="#F3356A" stroke-width="3" stroke-linecap="round" stroke-linejoin="round"/>
<path d="M40.3086 53.3571C40.3086 50.1323 40.3086 48.5199 40.9362 47.2882C41.4882 46.2047 42.3691 45.3239 43.4526 44.7718C44.6843 44.1442 46.2967 44.1442 49.5215 44.1442H69.4828C72.7076 44.1442 74.32 44.1442 75.5517 44.7718C76.6352 45.3239 77.5161 46.2047 78.0681 47.2882C78.6957 48.5199 78.6957 50.1323 78.6957 53.3571V65.641C78.6957 68.8658 78.6957 70.4782 78.0681 71.7099C77.5161 72.7934 76.6352 73.6743 75.5517 74.2263C74.32 74.8539 72.7076 74.8539 69.4828 74.8539H49.5215C46.2967 74.8539 44.6843 74.8539 43.4526 74.2263C42.3691 73.6743 41.4882 72.7934 40.9362 71.7099C40.3086 70.4782 40.3086 68.8658 40.3086 65.641V53.3571Z" stroke="#F3356A" stroke-width="3" stroke-linecap="round" stroke-linejoin="round"/>
<circle cx="59.5" cy="59.5" r="35" stroke="#DCDCDC"/>
<rect x="0.5" y="0.5" width="118" height="118" rx="59" stroke="#B2C1BC"/>
</svg>
