<svg width="119" height="119" viewBox="0 0 119 119" fill="none" xmlns="http://www.w3.org/2000/svg">
<line x1="18.3536" y1="16.6464" x2="102.354" y2="100.646" stroke="#DCDCDC"/>
<line x1="17.6464" y1="100.646" x2="100.646" y2="17.6464" stroke="#DCDCDC"/>
<path d="M42.2266 51.4378C42.2266 48.213 42.2266 46.6005 42.8542 45.3688C43.4062 44.2854 44.2871 43.4045 45.3705 42.8525C46.6022 42.2249 48.2146 42.2249 51.4395 42.2249H67.562C70.7869 42.2249 72.3993 42.2249 73.631 42.8525C74.7144 43.4045 75.5953 44.2854 76.1474 45.3688C76.775 46.6005 76.775 48.213 76.775 51.4378V62.3781C76.775 65.061 76.775 66.4025 76.3366 67.4606C75.7522 68.8715 74.6313 69.9925 73.2204 70.5769C72.1622 71.0152 70.8208 71.0152 68.1379 71.0152C67.2001 71.0152 66.7312 71.0152 66.2962 71.1179C65.7162 71.2548 65.1761 71.5249 64.7185 71.9067C64.3754 72.1931 64.0941 72.5682 63.5314 73.3184L60.7291 77.0548C60.3124 77.6104 60.1041 77.8882 59.8486 77.9876C59.6249 78.0746 59.3766 78.0746 59.1529 77.9876C58.8975 77.8882 58.6891 77.6104 58.2724 77.0548L55.4701 73.3184C54.9075 72.5682 54.6261 72.1931 54.283 71.9067C53.8254 71.5249 53.2853 71.2548 52.7053 71.1179C52.2703 71.0152 51.8014 71.0152 50.8637 71.0152C48.1807 71.0152 46.8393 71.0152 45.7811 70.5769C44.3702 69.9925 43.2493 68.8715 42.6649 67.4606C42.2266 66.4025 42.2266 65.061 42.2266 62.3781V51.4378Z" stroke="#F3356A" stroke-width="3" stroke-linecap="round" stroke-linejoin="round"/>
<circle cx="59.5" cy="59.5" r="35" stroke="#DCDCDC"/>
<rect x="0.5" y="0.5" width="118" height="118" rx="59" stroke="#B2C1BC"/>
</svg>
