<svg width="119" height="119" viewBox="0 0 119 119" fill="none" xmlns="http://www.w3.org/2000/svg">
<line x1="18.3536" y1="16.6464" x2="102.354" y2="100.646" stroke="#DCDCDC"/>
<line x1="17.6464" y1="100.646" x2="100.646" y2="17.6464" stroke="#DCDCDC"/>
<path opacity="0.4" d="M41.6289 66.4963L45.2914 64.382C45.4898 64.2674 45.7226 64.2277 45.9478 64.2698L53.154 65.6185C53.7462 65.7293 54.2929 65.2734 54.2902 64.6709L54.2621 58.3569C54.2614 58.1854 54.3066 58.0168 54.3931 57.8686L58.0298 51.6426C58.219 51.3185 58.2021 50.9139 57.9864 50.6069L51.8632 41.8912M78.6742 60.4597C78.6742 60.4597 73.664 60.3415 70.0612 58.5404C68.1415 57.5807 62.3838 50.863 72.9402 45.794" stroke="#F3356A" stroke-width="3" stroke-linecap="round" stroke-linejoin="round"/>
<path d="M60.4618 78.669C60.1439 78.6847 59.8239 78.6926 59.5021 78.6926C48.9018 78.6926 40.3086 70.0994 40.3086 59.4991C40.3086 48.8988 48.9018 40.3055 59.5021 40.3055C70.1024 40.3055 78.6957 48.8988 78.6957 59.4991C78.6957 59.8209 78.6878 60.1408 78.6721 60.4587M68.634 78.577L62.5558 62.5528L78.5801 68.6309L71.4744 71.4713L68.634 78.577Z" stroke="#F3356A" stroke-width="3" stroke-linecap="round" stroke-linejoin="round"/>
<circle cx="59.5" cy="59.5" r="35" stroke="#DCDCDC"/>
<rect x="0.5" y="0.5" width="118" height="118" rx="59" stroke="#B2C1BC"/>
</svg>
