<svg width="119" height="119" viewBox="0 0 119 119" fill="none" xmlns="http://www.w3.org/2000/svg">
<line x1="18.3536" y1="16.6464" x2="102.354" y2="100.646" stroke="#DCDCDC"/>
<line x1="17.6464" y1="100.646" x2="100.646" y2="17.6464" stroke="#DCDCDC"/>
<path opacity="0.4" d="M71.0183 44.1442H75.8167C76.711 44.1442 77.1581 44.1442 77.5108 44.2903C77.9811 44.4851 78.3548 44.8588 78.5496 45.3291C78.6957 45.6818 78.6957 46.1289 78.6957 47.0232V47.9829C78.6957 49.7679 78.6957 50.6603 78.4995 51.3926C77.9671 53.3796 76.415 54.9317 74.4279 55.4641C73.6957 55.6603 72.8032 55.6603 71.0183 55.6603M47.986 44.1442H43.1876C42.2933 44.1442 41.8462 44.1442 41.4934 44.2903C41.0231 44.4851 40.6495 44.8588 40.4547 45.3291C40.3086 45.6818 40.3086 46.1289 40.3086 47.0232V47.9829C40.3086 49.7679 40.3086 50.6603 40.5048 51.3926C41.0372 53.3796 42.5893 54.9317 44.5764 55.4641C45.3086 55.6603 46.2011 55.6603 47.986 55.6603" stroke="#F3356A" stroke-width="3" stroke-linecap="round" stroke-linejoin="round"/>
<path d="M59.5005 65.2571C53.1403 65.2571 47.9844 60.1012 47.9844 53.741V43.0779C47.9844 42.2836 47.9844 41.8864 48.1001 41.5684C48.2942 41.0353 48.7141 40.6153 49.2473 40.4213C49.5653 40.3055 49.9625 40.3055 50.7568 40.3055H68.2442C69.0386 40.3055 69.4357 40.3055 69.7537 40.4213C70.2869 40.6153 70.7068 41.0353 70.9009 41.5684C71.0166 41.8864 71.0166 42.2836 71.0166 43.0779V53.741C71.0166 60.1012 65.8607 65.2571 59.5005 65.2571ZM59.5005 65.2571V71.0152M50.7568 78.6926H68.2442C68.7154 78.6926 69.0973 78.3107 69.0973 77.8396C69.0973 74.0706 66.0419 71.0152 62.2729 71.0152H56.7281C52.9591 71.0152 49.9037 74.0706 49.9037 77.8396C49.9037 78.3107 50.2857 78.6926 50.7568 78.6926Z" stroke="#F3356A" stroke-width="3" stroke-linecap="round" stroke-linejoin="round"/>
<circle cx="59.5" cy="59.5" r="35" stroke="#DCDCDC"/>
<rect x="0.5" y="0.5" width="118" height="118" rx="59" stroke="#B2C1BC"/>
</svg>
