<svg width="119" height="119" viewBox="0 0 119 119" fill="none" xmlns="http://www.w3.org/2000/svg">
<line x1="18.3536" y1="16.6464" x2="102.354" y2="100.646" stroke="#DCDCDC"/>
<line x1="17.6464" y1="100.646" x2="100.646" y2="17.6464" stroke="#DCDCDC"/>
<path opacity="0.4" d="M63.5545 49.37H75.1268C75.9854 49.37 76.4146 49.37 76.6657 49.5505C76.8847 49.7079 77.0273 49.9504 77.0586 50.2183C77.0945 50.5254 76.886 50.9007 76.4691 51.6511L73.6485 56.7282C73.4973 57.0004 73.4217 57.1365 73.3921 57.2806C73.3658 57.4081 73.3658 57.5397 73.3921 57.6672C73.4217 57.8113 73.4973 57.9474 73.6485 58.2196L76.4691 63.2967C76.886 64.0471 77.0945 64.4224 77.0586 64.7295C77.0273 64.9975 76.8847 65.2399 76.6657 65.3973C76.4146 65.5778 75.9854 65.5778 75.1268 65.5778H60.5475C59.4726 65.5778 58.9351 65.5778 58.5245 65.3686C58.1634 65.1846 57.8698 64.891 57.6858 64.5299C57.4766 64.1193 57.4766 63.5818 57.4766 62.5069V57.4739" stroke="#F3356A" stroke-width="3" stroke-linecap="round" stroke-linejoin="round"/>
<path d="M50.3818 77.7333L42.2779 45.3176M45.3169 57.4731H60.4797C61.5547 57.4731 62.0922 57.4731 62.5027 57.2639C62.8639 57.0799 63.1575 56.7862 63.3415 56.4251C63.5507 56.0145 63.5507 55.477 63.5507 54.4021V44.3362C63.5507 43.2612 63.5507 42.7237 63.3415 42.3132C63.1575 41.952 62.8639 41.6584 62.5027 41.4744C62.0922 41.2652 61.5547 41.2652 60.4797 41.2652H45.1981C43.8574 41.2652 43.187 41.2652 42.7285 41.543C42.3266 41.7865 42.0281 42.1689 41.8893 42.6178C41.731 43.13 41.8936 43.7803 42.2188 45.081L45.3169 57.4731Z" stroke="#F3356A" stroke-width="3" stroke-linecap="round" stroke-linejoin="round"/>
<circle cx="59.5" cy="59.5" r="35" stroke="#DCDCDC"/>
<rect x="0.5" y="0.5" width="118" height="118" rx="59" stroke="#B2C1BC"/>
</svg>
