<svg width="119" height="119" viewBox="0 0 119 119" fill="none" xmlns="http://www.w3.org/2000/svg">
<line x1="18.3536" y1="16.6464" x2="102.354" y2="100.646" stroke="#DCDCDC"/>
<line x1="17.6464" y1="100.646" x2="100.646" y2="17.6464" stroke="#DCDCDC"/>
<path opacity="0.4" d="M59.5021 78.6926C70.1024 78.6926 78.6957 70.0994 78.6957 59.4991C78.6957 48.8988 70.1024 40.3055 59.5021 40.3055C48.9018 40.3055 40.3086 48.8988 40.3086 59.4991C40.3086 70.0994 48.9018 78.6926 59.5021 78.6926Z" stroke="#F3356A" stroke-width="3" stroke-linecap="round" stroke-linejoin="round"/>
<path d="M64.7303 52.3312C65.668 52.0187 66.1369 51.8624 66.4487 51.9736C66.72 52.0703 66.9335 52.2838 67.0303 52.5552C67.1414 52.867 66.9852 53.3358 66.6726 54.2735L63.8175 62.8389C63.7284 63.1059 63.6839 63.2395 63.6081 63.3504C63.5409 63.4486 63.456 63.5334 63.3578 63.6006C63.2469 63.6765 63.1134 63.721 62.8463 63.81L54.281 66.6651C53.3433 66.9777 52.8744 67.134 52.5626 67.0228C52.2913 66.926 52.0778 66.7125 51.981 66.4412C51.8699 66.1294 52.0261 65.6606 52.3387 64.7229L55.1938 56.1575C55.2829 55.8904 55.3274 55.7569 55.4032 55.646C55.4704 55.5478 55.5553 55.4629 55.6535 55.3958C55.7644 55.3199 55.8979 55.2754 56.165 55.1864L64.7303 52.3312Z" stroke="#F3356A" stroke-width="3" stroke-linecap="round" stroke-linejoin="round"/>
<circle cx="59.5" cy="59.5" r="35" stroke="#DCDCDC"/>
<rect x="0.5" y="0.5" width="118" height="118" rx="59" stroke="#B2C1BC"/>
</svg>
