<svg width="119" height="119" viewBox="0 0 119 119" fill="none" xmlns="http://www.w3.org/2000/svg">
<line x1="18.3536" y1="16.6464" x2="102.354" y2="100.646" stroke="#DCDCDC"/>
<line x1="17.6464" y1="100.646" x2="100.646" y2="17.6464" stroke="#DCDCDC"/>
<path opacity="0.4" d="M61.6528 64.9575L71.0166 78.691M57.3482 64.9575L47.9844 78.691M63.3392 61.8008C63.3392 63.9208 61.6206 65.6395 59.5005 65.6395C57.3804 65.6395 55.6618 63.9208 55.6618 61.8008C55.6618 59.6807 57.3804 57.9621 59.5005 57.9621C61.6206 57.9621 63.3392 59.6807 63.3392 61.8008Z" stroke="#F3356A" stroke-width="3" stroke-linecap="round" stroke-linejoin="round"/>
<path d="M45.6745 53.1069C45.5354 52.5878 45.4659 52.3282 45.5138 52.1028C45.5559 51.9046 45.6597 51.7248 45.8103 51.5892C45.9816 51.435 46.2411 51.3654 46.7603 51.2263L69.3785 45.1658L71.8624 54.4356L49.2441 60.4961C48.725 60.6352 48.4654 60.7048 48.24 60.6569C48.0418 60.6147 47.862 60.5109 47.7264 60.3603C47.5722 60.1891 47.5026 59.9295 47.3635 59.4104L45.6745 53.1069Z" stroke="#F3356A" stroke-width="3" stroke-linecap="round" stroke-linejoin="round"/>
<path d="M70.4714 49.2445C69.915 47.1679 69.6368 46.1296 69.8284 45.2281C69.9969 44.4352 70.4122 43.7159 71.0146 43.1735C71.6995 42.5568 72.7378 42.2786 74.8144 41.7222C75.3336 41.5831 75.5932 41.5135 75.8185 41.5614C76.0168 41.6036 76.1966 41.7074 76.3322 41.858C76.4863 42.0292 76.5559 42.2888 76.695 42.8079L79.3775 52.8193C79.5166 53.3384 79.5862 53.598 79.5383 53.8234C79.4962 54.0216 79.3923 54.2014 79.2417 54.337C79.0705 54.4912 78.8109 54.5608 78.2918 54.6999C76.2152 55.2563 75.1768 55.5345 74.2754 55.3429C73.4824 55.1744 72.7632 54.7591 72.2208 54.1567C71.6041 53.4718 71.3259 52.4335 70.7695 50.3569L70.4714 49.2445Z" stroke="#F3356A" stroke-width="3" stroke-linecap="round" stroke-linejoin="round"/>
<path d="M40.6094 56.4512C40.4703 55.932 40.4008 55.6724 40.4487 55.4471C40.4908 55.2488 40.5946 55.069 40.7452 54.9334C40.9165 54.7792 41.176 54.7097 41.6952 54.5706L44.2907 53.8751C44.8099 53.736 45.0695 53.6664 45.2948 53.7144C45.4931 53.7565 45.6729 53.8603 45.8085 54.0109C45.9626 54.1821 46.0322 54.4417 46.1713 54.9609L46.8668 57.5564C47.0059 58.0756 47.0754 58.3351 47.0275 58.5605C46.9854 58.7587 46.8816 58.9385 46.731 59.0741C46.5598 59.2283 46.3002 59.2979 45.781 59.437L43.1855 60.1324C42.6663 60.2716 42.4068 60.3411 42.1814 60.2932C41.9832 60.2511 41.8033 60.1473 41.6677 59.9966C41.5136 59.8254 41.444 59.5659 41.3049 59.0467L40.6094 56.4512Z" stroke="#F3356A" stroke-width="3" stroke-linecap="round" stroke-linejoin="round"/>
<circle cx="59.5" cy="59.5" r="35" stroke="#DCDCDC"/>
<rect x="0.5" y="0.5" width="118" height="118" rx="59" stroke="#B2C1BC"/>
</svg>
