<svg width="66" height="66" viewBox="0 0 66 66" fill="none" xmlns="http://www.w3.org/2000/svg">
<circle cx="33" cy="33" r="33" fill="#38BC64"/>
<path opacity="0.12" d="M34.6661 16.3334L19.8219 34.1465C19.2405 34.8441 18.9498 35.1929 18.9454 35.4875C18.9415 35.7436 19.0557 35.9872 19.2549 36.1482C19.484 36.3334 19.9381 36.3334 20.8462 36.3334H32.9994L31.3328 49.6667L46.177 31.8536C46.7584 31.156 47.049 30.8072 47.0535 30.5126C47.0573 30.2565 46.9432 30.0129 46.744 29.8519C46.5149 29.6667 46.0608 29.6667 45.1527 29.6667H32.9994L34.6661 16.3334Z" fill="white"/>
<path d="M34.6661 16.3334L19.8219 34.1465C19.2405 34.8441 18.9498 35.1929 18.9454 35.4875C18.9415 35.7436 19.0557 35.9872 19.2549 36.1482C19.484 36.3334 19.9381 36.3334 20.8462 36.3334H32.9994L31.3328 49.6667L46.177 31.8536C46.7584 31.156 47.049 30.8072 47.0535 30.5126C47.0573 30.2565 46.9432 30.0129 46.744 29.8519C46.5149 29.6667 46.0608 29.6667 45.1527 29.6667H32.9994L34.6661 16.3334Z" stroke="white" stroke-width="2" stroke-linecap="round" stroke-linejoin="round"/>
</svg>
