<svg width="66" height="66" viewBox="0 0 66 66" fill="none" xmlns="http://www.w3.org/2000/svg">
<circle cx="33" cy="33" r="33" fill="#38BC64"/>
<path opacity="0.4" d="M38.668 20.3462C40.9523 21.4814 42.5221 23.8387 42.5221 26.5626C42.5221 29.2865 40.9523 31.6437 38.668 32.7789M41.7513 40.8482C44.0815 41.9027 46.1798 43.6211 47.918 45.8334" stroke="white" stroke-width="2" stroke-linecap="round" stroke-linejoin="round"/>
<path d="M17.082 45.8333C20.0829 42.014 24.157 39.6667 28.6445 39.6667C33.132 39.6667 37.2062 42.014 40.207 45.8333M35.582 26.5625C35.582 30.394 32.476 33.5 28.6445 33.5C24.8131 33.5 21.707 30.394 21.707 26.5625C21.707 22.731 24.8131 19.625 28.6445 19.625C32.476 19.625 35.582 22.731 35.582 26.5625Z" stroke="white" stroke-width="2" stroke-linecap="round" stroke-linejoin="round"/>
</svg>
