<svg width="66" height="66" viewBox="0 0 66 66" fill="none" xmlns="http://www.w3.org/2000/svg">
<circle cx="33" cy="33" r="33" fill="#38BC64"/>
<path opacity="0.4" d="M33.0002 49.6666C42.2049 49.6666 49.6668 42.2047 49.6668 33C49.6668 23.7952 42.2049 16.3333 33.0002 16.3333C23.7954 16.3333 16.3335 23.7952 16.3335 33C16.3335 42.2047 23.7954 49.6666 33.0002 49.6666Z" stroke="#F8F7F2" stroke-width="2" stroke-linecap="round" stroke-linejoin="round"/>
<path d="M26.3332 36.3334C26.3332 36.3334 28.8332 39.6667 32.9998 39.6667C37.1665 39.6667 39.6665 36.3334 39.6665 36.3334M41.3332 28.4C40.6748 29.2084 39.7748 29.6667 38.8332 29.6667C37.8915 29.6667 37.0165 29.2084 36.3332 28.4M29.6665 28.4C29.0082 29.2084 28.1082 29.6667 27.1665 29.6667C26.2248 29.6667 25.3498 29.2084 24.6665 28.4" stroke="#F8F7F2" stroke-width="2" stroke-linecap="round" stroke-linejoin="round"/>
</svg>
